<svg xmlns="http://www.w3.org/2000/svg" width="93" height="73" viewBox="0 0 93 73">
  <defs>
    <style>
      .cls-1 {
        fill: #2288db;
        fill-rule: evenodd;
      }
    </style>
  </defs>
  <path id="izmer" class="cls-1" d="M1198.67,1464h-80.34a6.306,6.306,0,0,0-6.33,6.27v57.28a6.286,6.286,0,0,0,4.82,6.08v1.88a1.505,1.505,0,0,0,3.01,0v-1.69h77.34v1.69a1.505,1.505,0,0,0,3.01,0v-1.88a6.286,6.286,0,0,0,4.82-6.08v-57.28A6.306,6.306,0,0,0,1198.67,1464Zm3.32,63.55a3.3,3.3,0,0,1-3.32,3.28h-80.34a3.3,3.3,0,0,1-3.32-3.28v-57.28a3.3,3.3,0,0,1,3.32-3.28h80.34a3.3,3.3,0,0,1,3.32,3.28v57.28Zm-6.53-3.08h-1.61a1.49,1.49,0,1,0,0,2.98h1.61A1.49,1.49,0,1,0,1195.46,1524.47Zm-8.04,0h-1.6a1.49,1.49,0,1,0,0,2.98h1.6A1.49,1.49,0,1,0,1187.42,1524.47Zm-8.03,0h-4.82a1.49,1.49,0,1,0,0,2.98h4.82A1.49,1.49,0,1,0,1179.39,1524.47Zm17.68-54.1h-77.14a1.49,1.49,0,0,0-1.5,1.49v47.79a0.487,0.487,0,0,0,.01.12v0.01a1.506,1.506,0,0,0,.54.97c0.01,0,.01.01,0.02,0.01,0.03,0.03.07,0.05,0.1,0.08a0.02,0.02,0,0,1,.02.01c0.04,0.02.07,0.04,0.11,0.06,0,0.01.01,0.01,0.02,0.01a0.666,0.666,0,0,0,.12.06h0.01a0.647,0.647,0,0,0,.13.04v0.01h0.03l0.11,0.03c0.02,0,.04.01,0.07,0.01s0.05,0.01.08,0.01h0.09a0.227,0.227,0,0,1,.04.01h77.15a0.881,0.881,0,0,0,.17-0.02h0.05a0.847,0.847,0,0,0,.17-0.04h0.02v-0.01a0.647,0.647,0,0,0,.13-0.04h0.01a1.339,1.339,0,0,0,.12-0.06c0.01,0,.02,0,0.02-0.01,0.04-.02.07-0.04,0.11-0.06a0.02,0.02,0,0,1,.02-0.01c0.03-.03.07-0.05,0.1-0.08,0.01,0,.01-0.01.02-0.01a1.506,1.506,0,0,0,.54-0.97v-0.01a0.487,0.487,0,0,0,.01-0.12v-47.79A1.49,1.49,0,0,0,1197.07,1470.37Zm-1.51,2.98v38.53a41.973,41.973,0,0,0-6.04-8.69l2.72-2.73a1.488,1.488,0,0,0-.02-2.11,1.512,1.512,0,0,0-2.13.02l-2.66,2.67a41.379,41.379,0,0,0-3.7-3.16c-0.04-.03-0.08-0.05-0.12-0.08l3.87-5.75a1.465,1.465,0,0,0-.41-2.06,1.509,1.509,0,0,0-2.09.41l-3.84,5.68a41.148,41.148,0,0,0-4.99-2.75l1.42-3.4a1.489,1.489,0,0,0-.82-1.95,1.521,1.521,0,0,0-1.97.81l-1.4,3.37a39.089,39.089,0,0,0-4.97-1.53l0.66-3.27a1.5,1.5,0,0,0-1.18-1.76,1.522,1.522,0,0,0-1.78,1.17l-0.65,3.26a41.061,41.061,0,0,0-5.45-.54V1483a1.51,1.51,0,0,0-3.02,0v6.49a41.061,41.061,0,0,0-5.45.54l-0.65-3.26a1.517,1.517,0,0,0-1.77-1.17,1.5,1.5,0,0,0-1.19,1.76l0.66,3.27a40.682,40.682,0,0,0-5.1,1.58l-1.43-3.42a1.521,1.521,0,0,0-1.97-.81,1.485,1.485,0,0,0-.81,1.95l1.44,3.46a40.551,40.551,0,0,0-4.74,2.61l-3.83-5.68a1.522,1.522,0,0,0-2.09-.42,1.481,1.481,0,0,0-.42,2.07l3.87,5.74c-0.08.06-.16,0.11-0.24,0.17a42.834,42.834,0,0,0-3.7,3.16l-2.66-2.67a1.512,1.512,0,0,0-2.13-.02,1.488,1.488,0,0,0-.02,2.11l2.72,2.73a41.973,41.973,0,0,0-6.04,8.69v-38.53h74.12Zm-22.88,24.18a1.511,1.511,0,0,0-1.97.8l-8.45,19.77H1122a38.686,38.686,0,0,1,13.1-17.84c0.42-.32.84-0.62,1.26-0.92,0.02-.01.03-0.01,0.05-0.02a0.874,0.874,0,0,1,.1-0.08A38.772,38.772,0,0,1,1195,1518.1h-29.47l7.95-18.61A1.486,1.486,0,0,0,1172.68,1497.53Zm-14.18-19.41a1.514,1.514,0,0,0,1.06-.43,1.484,1.484,0,0,0,.45-1.06,1.445,1.445,0,0,0-.45-1.05,1.5,1.5,0,0,0-2.12,0,1.445,1.445,0,0,0-.45,1.05,1.484,1.484,0,0,0,.45,1.06A1.514,1.514,0,0,0,1158.5,1478.12Zm31.13,9.42a1.522,1.522,0,0,0,1.07-.44,1.485,1.485,0,0,0,0-2.11,1.509,1.509,0,0,0-2.13,0,1.485,1.485,0,0,0,0,2.11A1.516,1.516,0,0,0,1189.63,1487.54Zm-62.26,0a1.516,1.516,0,0,0,1.06-.44,1.485,1.485,0,0,0,0-2.11,1.509,1.509,0,0,0-2.13,0,1.485,1.485,0,0,0,0,2.11A1.522,1.522,0,0,0,1127.37,1487.54Z" transform="translate(-1112 -1464)"/>
</svg>
