<svg xmlns="http://www.w3.org/2000/svg" width="64" height="77" viewBox="0 0 64 77">
  <defs>
    <style>
      .cls-1 {
        fill: #2288db;
        fill-rule: evenodd;
      }
    </style>
  </defs>
  <path id="lenta" class="cls-1" d="M534.74,2119.4v5.75a1.523,1.523,0,1,0,3.045,0v-5.75A1.523,1.523,0,1,0,534.74,2119.4Zm10.115-46.87v24.03H536.43c-3.3,0-6.291,2.85-8.413,8.03a53.371,53.371,0,0,0,0,35.38c2.122,5.18,5.11,8.03,8.413,8.03h41.14c3.3,0,6.291-2.85,8.413-8.03A48.194,48.194,0,0,0,589,2122.28v-49.75a1.53,1.53,0,0,0-1.523-1.53h-41.1A1.529,1.529,0,0,0,544.855,2072.53Zm-16.809,49.75c0-13.35,4.418-22.66,8.384-22.66s8.384,9.31,8.385,22.66h0c0,13.35-4.419,22.65-8.385,22.65S528.046,2135.63,528.046,2122.28ZM542,2099.62h2.856v5c0-.01-0.007-0.02-0.011-0.03A19.258,19.258,0,0,0,542,2099.62Zm43.956-25.55v10.05H561.111a1.535,1.535,0,0,0,0,3.07h24.843v21.39h-31.23a1.535,1.535,0,0,0,0,3.07h31.23v10.63a52.921,52.921,0,0,1-.979,10.38H554.724a1.53,1.53,0,0,0,0,3.06h29.507c-1.65,5.74-4.24,9.21-6.661,9.21H542a19.185,19.185,0,0,0,2.845-4.96,47.906,47.906,0,0,0,3.015-17.34l0.042-48.56h38.054ZM553.2,2085.66a1.53,1.53,0,0,0,1.523,1.53h1.058a1.535,1.535,0,0,0,0-3.07h-1.058A1.532,1.532,0,0,0,553.2,2085.66Z" transform="translate(-525 -2071)"/>
</svg>
