<svg xmlns="http://www.w3.org/2000/svg" width="77" height="77" viewBox="0 0 77 77">
  <defs>
    <style>
      .cls-1 {
        fill: #2288db;
        fill-rule: evenodd;
      }
    </style>
  </defs>
  <path id="corpus" class="cls-1" d="M998,1844.67V1828H921v16.67h4.763v43.66H921V1905h77v-16.67h-4.763v-43.66H998Zm-2.381,46.04v11.91H923.381v-11.91h72.238Zm-60.33-12.3v-33.74h16.67v11.11h3.175v7.94h8.732v-7.94h3.175v-11.11h16.67v33.74h2.382v-33.74h4.763v43.66h-4.763v-6.35H972.6v-12.7H946.4v12.7h-13.5v6.35h-4.763v-43.66h4.763v33.74h2.382Zm19.051-25.01v-8.73h10.32v8.73H954.34Zm7.145,2.38v5.56h-3.97v-5.56h3.97Zm-11.908-13.49v-5.56h19.846v5.56H949.577Zm-0.793,31.75v-2.38h21.432v10.32H948.784v-5.56h9.922v-2.38h-9.922Zm34.927,10.32v3.97H935.289v-3.97h48.422ZM971.8,1842.29v-7.94H947.2v7.94H923.381v-11.91h72.238v11.91H971.8Zm12.3-7.15h7.938v2.39h-7.938v-2.39Zm-57.154,0h7.938v2.39h-7.938v-2.39Zm11.113,0h3.175v2.39h-3.175v-2.39Zm39.691,0h3.175v2.39h-3.175v-2.39Zm-26.99,59.54h17.464v2.38H950.768v-2.38Zm11.113-20.64h3.176v2.38h-3.176v-2.38Z" transform="translate(-921 -1828)"/>
</svg>
