<svg xmlns="http://www.w3.org/2000/svg" width="70" height="77" viewBox="0 0 70 77">
  <defs>
    <style>
      .cls-1 {
        fill: #2288db;
        fill-rule: evenodd;
      }
    </style>
  </defs>
  <path id="diagnost" class="cls-1" d="M1392.84,2618.6a1.324,1.324,0,0,0-1.53,1.03c-1.4,7.06-7,11.8-13.75,11.8a14.721,14.721,0,0,1-13.97-10.26h5.96v-2.57h-7.4a1.4,1.4,0,0,0-.5,0h-2.29v10.27h2.55v-4.77a17.129,17.129,0,0,0,15.53,9.9c8.14,0,14.63-5.52,16.41-13.86A1.329,1.329,0,0,0,1392.84,2618.6Zm-0.39-15.4v5.65a16.684,16.684,0,0,0-15.01-9.5,17.493,17.493,0,0,0-16.8,12.58,1.316,1.316,0,0,0,.89,1.54,1.385,1.385,0,0,0,1.52-.9,15.242,15.242,0,0,1,14.39-10.65,14.193,14.193,0,0,1,13.17,8.98h-5.79v2.57H1395V2603.2h-2.55Zm-59.81-38.5a2.565,2.565,0,0,0-2.55,2.57v59.03a2.571,2.571,0,0,0,2.55,2.57h22.91a1.285,1.285,0,0,0,0-2.57h-22.91v-59.03h12.72a2.563,2.563,0,0,0,2.55,2.56h17.82a2.554,2.554,0,0,0,2.54-2.56H1381v28.23a1.275,1.275,0,1,0,2.55,0v-28.23a2.565,2.565,0,0,0-2.55-2.57h-12.73v-2.57h16.55a1.213,1.213,0,0,1,1.27,1.29v32.08a1.275,1.275,0,1,0,2.55,0v-32.08a3.77,3.77,0,0,0-3.82-3.85h-16.55a2.563,2.563,0,0,0-2.54-2.57h-17.82a2.571,2.571,0,0,0-2.55,2.57h-16.54a3.764,3.764,0,0,0-3.82,3.85v66.73a3.764,3.764,0,0,0,3.82,3.85h26.73a1.285,1.285,0,0,0,0-2.57h-26.73a1.2,1.2,0,0,1-1.27-1.28v-66.73a1.207,1.207,0,0,1,1.27-1.29h16.54v2.57h-12.72Zm15.27-5.13h17.82v7.7h-17.82v-7.7Zm23.38,24.25-4.93-6.93a4.048,4.048,0,0,0-3.43-1.8h-5.51a1.428,1.428,0,0,0-.6-0.12,1.4,1.4,0,0,0-.6.12h-5.51a4.078,4.078,0,0,0-3.44,1.8l-4.92,6.93h-2.59a3.3,3.3,0,0,0-3.31,3.34v5a3.224,3.224,0,0,0,3.31,3.34h1.95a5.081,5.081,0,0,0,9.86,0h10.5a5.081,5.081,0,0,0,9.86,0h1.94a3.412,3.412,0,0,0,3.44-3.34v-5a3.3,3.3,0,0,0-3.31-3.34h-2.71Zm-7.09-5.65,3.98,5.65h-10.09v-6.29h4.71A1.638,1.638,0,0,1,1364.2,2578.17Zm-15.02,0a2.051,2.051,0,0,1,1.4-.64h4.97v6.29h-10.23Zm-2.54,18.61a2.565,2.565,0,1,1,2.54-2.56A2.563,2.563,0,0,1,1346.64,2596.78Zm20.36,0a2.565,2.565,0,1,1,2.55-2.56A2.563,2.563,0,0,1,1367,2596.78Zm7.76-9.62v5a0.819,0.819,0,0,1-.76.77h-2.04a4.9,4.9,0,0,0-4.71-3.85c-0.04,0-.09.01-0.13,0.01s-0.08-.01-0.12-0.01a5.131,5.131,0,0,0-4.93,3.85h-10.34a5.21,5.21,0,0,0-4.97-3.85,0.2,0.2,0,0,0-.07.01,0.075,0.075,0,0,0-.05-0.01,5.131,5.131,0,0,0-4.93,3.85h-1.95a0.819,0.819,0,0,1-.76-0.77v-5a0.819,0.819,0,0,1,.76-0.77h2.49a1.261,1.261,0,0,0,.57.13h28a1.327,1.327,0,0,0,.57-0.13H1374A0.819,0.819,0,0,1,1374.76,2587.16Zm-17.94,18.61h-19.09a1.28,1.28,0,0,0,0,2.56h19.09A1.28,1.28,0,0,0,1356.82,2605.77Zm0,6.41h-19.09a1.285,1.285,0,0,0,0,2.57h19.09A1.285,1.285,0,0,0,1356.82,2612.18Zm0,6.42h-19.09a1.285,1.285,0,0,0,0,2.57h19.09A1.285,1.285,0,0,0,1356.82,2618.6Z" transform="translate(-1325 -2557)"/>
</svg>
