<svg xmlns="http://www.w3.org/2000/svg" width="77" height="77" viewBox="0 0 77 77">
  <defs>
    <style>
      .cls-1 {
        fill: #2288db;
        fill-rule: evenodd;
      }
    </style>
  </defs>
  <path id="ginko" class="cls-1" d="M1344.38,2371.75a5.135,5.135,0,1,0-5.13-5.13A5.143,5.143,0,0,0,1344.38,2371.75Zm0-7.7a2.565,2.565,0,1,1-2.56,2.57A2.569,2.569,0,0,1,1344.38,2364.05Zm32.09-34.65a5.135,5.135,0,1,0,5.13,5.13A5.143,5.143,0,0,0,1376.47,2329.4Zm0,7.7a2.565,2.565,0,1,1,2.56-2.57A2.569,2.569,0,0,1,1376.47,2337.1Zm-32.09,39.78a10.265,10.265,0,1,0-10.26-10.26A10.277,10.277,0,0,0,1344.38,2376.88Zm0-17.96a7.7,7.7,0,1,1-7.7,7.7A7.7,7.7,0,0,1,1344.38,2358.92Zm51.58,2.45c0.15-.65.29-1.3,0.41-1.97a0.44,0.44,0,0,1,.02-0.1v-0.02a38.943,38.943,0,0,0,.61-6.78,38.331,38.331,0,0,0-3.02-14.94,0.127,0.127,0,0,0-.01-0.06,39.028,39.028,0,0,0-20.47-20.47,0.127,0.127,0,0,1-.06-0.01,38.265,38.265,0,0,0-21.48-2.45h-0.01a0.425,0.425,0,0,0-.11.02c-0.52.09-1.04,0.19-1.55,0.3-0.03.01-.06,0.01-0.09,0.02a37.636,37.636,0,0,0-5.95,1.84c-0.17.07-.35,0.13-0.53,0.2-0.28.12-.56,0.25-0.85,0.38-0.27.12-.55,0.24-0.83,0.37l-0.66.33c-0.06.03-.12,0.06-0.19,0.09a0.257,0.257,0,0,1-.05.02c-0.08.04-.15,0.08-0.23,0.12-0.18.09-.35,0.19-0.53,0.29-0.16.08-.32,0.17-0.47,0.25-0.19.1-.37,0.2-0.55,0.31-0.22.12-.42,0.25-0.64,0.37-0.11.07-.22,0.14-0.32,0.21-0.45.27-.89,0.55-1.33,0.84-0.04.03-.09,0.06-0.13,0.09-0.23.16-.46,0.31-0.68,0.47l-0.09.06c-0.48.35-.95,0.7-1.41,1.06a0.1,0.1,0,0,0-.05.04h-0.01a38.992,38.992,0,0,0-5.79,5.63,0.47,0.47,0,0,0-.06.09,38.4,38.4,0,0,0-7.22,35.59v0.03c0.01,0.04.03,0.08,0.04,0.12q0.315,1.05.69,2.07c0.09,0.24.19,0.48,0.28,0.72,0.16,0.4.32,0.79,0.48,1.18,0.18,0.4.36,0.8,0.54,1.19,0.09,0.19.18,0.37,0.27,0.55a38.268,38.268,0,0,0,17.66,17.66c0.18,0.09.35,0.17,0.52,0.25,0.4,0.19.81,0.37,1.22,0.55,0.37,0.16.75,0.31,1.13,0.46,0.25,0.1.51,0.21,0.77,0.3,0.67,0.25,1.36.48,2.05,0.69,0.04,0.01.09,0.03,0.13,0.04,0.02,0.01.03,0,.05,0.01a38.382,38.382,0,0,0,28.82-2.75,0.418,0.418,0,0,0,.1-0.04c0.1-.04.18-0.1,0.28-0.15,0.31-.17.61-0.35,0.92-0.52,0.29-.16.58-0.32,0.86-0.5,0.54-.32,1.08-0.67,1.6-1.02,0.22-.15.44-0.32,0.66-0.47,0.35-.25.7-0.5,1.04-0.76,0.19-.14.38-0.29,0.56-0.44,0.38-.3.76-0.61,1.12-0.92,0.14-.11.28-0.23,0.41-0.35,0.45-.39.88-0.79,1.31-1.2l0.15-.15q0.93-.9,1.8-1.86a0.3,0.3,0,0,0,.07-0.05,38.375,38.375,0,0,0,6.78-10.66c0.06-.14.11-0.29,0.17-0.43,0.14-.33.28-0.67,0.41-1.01a0.227,0.227,0,0,0,.01-0.04,38.821,38.821,0,0,0,1.4-4.56C1395.94,2361.46,1395.95,2361.42,1395.96,2361.37Zm-13.03,17.44c-0.32.3-.65,0.59-0.98,0.88-0.12.11-.25,0.22-0.38,0.33-0.26.22-.53,0.43-0.79,0.64-0.21.17-.41,0.33-0.62,0.49s-0.42.3-.62,0.46c-0.2.14-.39,0.28-0.59,0.41a6.068,6.068,0,0,0-4.99-7.29l-1.34-.21v-2.28l1.27-.24a6.053,6.053,0,0,0,3.74-9.52l-0.8-1.1,1.61-1.61,1.64,1.11a6.057,6.057,0,0,0,9.34-3.86l0.37-1.95h2.28l0.21,1.34a5.962,5.962,0,0,0,1.46,3.1,34.767,34.767,0,0,1-1.26,4.63,8.759,8.759,0,0,0-1.25-.09,8.323,8.323,0,0,0-6.75,13.23c-0.46.48-.92,0.95-1.41,1.4A1.788,1.788,0,0,1,1382.93,2378.81Zm8.07-11.03a36.159,36.159,0,0,1-4.77,7.51,5.7,5.7,0,0,1-.78-2.9,5.781,5.781,0,0,1,5.78-5.77h0.29c-0.15.34-.29,0.68-0.45,1.01C1391.05,2367.68,1391.02,2367.73,1391,2367.78Zm-14.53-17.85a15.4,15.4,0,0,1-3.62-30.36,35.951,35.951,0,0,1,7.02,4.06,1.132,1.132,0,0,0,.13.1c0.35,0.26.7,0.54,1.04,0.81l0.33,0.27c0.26,0.21.51,0.43,0.76,0.65,0.18,0.16.37,0.32,0.55,0.48,0.09,0.09.18,0.18,0.28,0.27,0.65,0.6,1.28,1.23,1.88,1.89,0.07,0.07.15,0.14,0.22,0.22,0.17,0.19.33,0.38,0.5,0.57,0.21,0.25.43,0.49,0.63,0.74,0.1,0.11.18,0.23,0.28,0.34,0.27,0.34.54,0.68,0.8,1.03,0.04,0.04.07,0.1,0.11,0.14a37,37,0,0,1,4.06,7.01A15.477,15.477,0,0,1,1376.47,2349.93Zm-26.66-32.29a5.107,5.107,0,0,0,4.03,6.05l0.81,0.16v1.39l-0.86.13a5.1,5.1,0,0,0-3.44,7.9l0.46,0.68-0.98.98-0.23-.16a5.092,5.092,0,0,0-8.05,3.33l-0.05.28h-1.39l-0.15-.81a5.1,5.1,0,0,0-8.02-3.15l-0.7.51-0.99-.98,0.47-.68a5,5,0,0,0,.65-4.29c0.13-.15.25-0.3,0.38-0.45,0.33-.36.67-0.72,1.01-1.07s0.71-.71,1.08-1.06c0.17-.16.35-0.32,0.52-0.47a6.4,6.4,0,1,0,10.27-6.57c0.79-.33,1.59-0.63,2.39-0.9,0.09-.03.17-0.06,0.25-0.09C1348.11,2318.1,1348.95,2317.85,1349.81,2317.64Zm-13.11,6.33,0.3-.24q0.78-.57,1.59-1.11c0.26-.17.51-0.35,0.78-0.51a0.359,0.359,0,0,1,.1-0.07c0.54-.34,1.1-0.65,1.66-0.96,0.24-.14.48-0.28,0.73-0.41a3.842,3.842,0,0,1-1.33,7.45,3.858,3.858,0,0,1-3.85-3.85C1336.68,2324.17,1336.69,2324.07,1336.7,2323.97Zm0.13,23.55c0.04-.02.08-0.01,0.12-0.03a0.673,0.673,0,0,0,.11-0.07,20.543,20.543,0,0,1,26.12,27.47c-0.01.02-.03,0.04-0.04,0.06a0.292,0.292,0,0,0-.02.09,20.414,20.414,0,0,1-15.25,11.79h-0.01c-0.63-.2-1.25-0.42-1.87-0.65-0.29-.1-0.57-0.22-0.86-0.33s-0.59-.24-0.88-0.37c-0.38-.16-0.76-0.33-1.13-0.51-0.14-.07-0.28-0.14-0.42-0.2a36.211,36.211,0,0,1-16.47-16.48c-0.07-.14-0.13-0.27-0.2-0.4-0.18-.38-0.35-0.76-0.51-1.15-0.13-.29-0.25-0.58-0.37-0.88-0.11-.28-0.23-0.56-0.33-0.85-0.23-.62-0.45-1.24-0.65-1.88h0A20.381,20.381,0,0,1,1336.83,2347.52Zm16.18,40.49a22.871,22.871,0,0,0,11.93-10.85l2.02,0.9a1.387,1.387,0,0,0,.52.11,1.307,1.307,0,0,0,1.18-.77,1.286,1.286,0,0,0-.65-1.69l-2.01-.89a23.25,23.25,0,0,0,1.48-8.2,22.9,22.9,0,0,0-1.15-7.16l1.62-.63a1.282,1.282,0,1,0-.93-2.39l-1.63.63a23.189,23.189,0,0,0-10.48-10.99l0.91-2.04a1.28,1.28,0,1,0-2.34-1.04l-0.91,2.04a22.956,22.956,0,0,0-8.19-1.52,23.234,23.234,0,0,0-7.16,1.14l-0.62-1.61a1.287,1.287,0,0,0-2.4.93l0.63,1.6a22.856,22.856,0,0,0-11.84,12.41,35.9,35.9,0,0,1,4.41-23.46,1.228,1.228,0,0,0,.29.49l2.51,2.51a1.292,1.292,0,0,0,1.67.13l1.58-1.17a2.544,2.544,0,0,1,3.99,1.57l0.35,1.85a1.294,1.294,0,0,0,1.26,1.04h3.56a1.271,1.271,0,0,0,1.26-1.09l0.21-1.36a2.532,2.532,0,0,1,4-1.66l1.12,0.82a1.278,1.278,0,0,0,1.66-.13l2.52-2.51a1.287,1.287,0,0,0,.15-1.63l-1.06-1.56a2.5,2.5,0,0,1-.22-2.44,2.464,2.464,0,0,1,1.93-1.48l1.95-.3a1.3,1.3,0,0,0,1.09-1.27v-3.56a1.293,1.293,0,0,0-1.05-1.26l-1.85-.35a2.535,2.535,0,0,1-1.56-3.98l0.13-.18a35.98,35.98,0,0,1,16.22,1.16,17.45,17.45,0,0,0-4.39,2.8l-0.96-.96a1.283,1.283,0,0,0-1.81,1.82l0.96,0.96a18,18,0,0,0-4.35,10.46h-1.34a1.285,1.285,0,1,0,0,2.57h1.35a17.854,17.854,0,0,0,4.33,10.46l-0.95.96a1.28,1.28,0,1,0,1.81,1.81l0.96-.96a17.8,17.8,0,0,0,10.46,4.34v1.35a1.285,1.285,0,1,0,2.57,0v-1.34a18,18,0,0,0,10.46-4.35l0.96,0.96a1.288,1.288,0,0,0,.91.38,1.306,1.306,0,0,0,.91-0.38,1.28,1.28,0,0,0,0-1.81l-0.96-.96a17.734,17.734,0,0,0,2.8-4.39,35.811,35.811,0,0,1,1.6,10.61c0,0.33-.01.66-0.02,0.99a1.283,1.283,0,0,0-1.24-.99h-4.44a1.294,1.294,0,0,0-1.26,1.04l-0.57,2.99a3.492,3.492,0,0,1-5.38,2.23l-2.52-1.71a1.287,1.287,0,0,0-1.63.15l-3.14,3.15a1.276,1.276,0,0,0-.12,1.66l1.45,1.99a3.488,3.488,0,0,1-2.15,5.48l-2.32.44a1.294,1.294,0,0,0-1.04,1.26v4.45a1.271,1.271,0,0,0,1.09,1.26l2.43,0.38a3.479,3.479,0,0,1,2.35,5.39l-1.31,1.95A35.932,35.932,0,0,1,1353.01,2388.01Z" transform="translate(-1320 -2314)"/>
</svg>
