<svg xmlns="http://www.w3.org/2000/svg" width="77" height="76.94" viewBox="0 0 77 76.94">
  <defs>
    <style>
      .cls-1 {
        fill: #2288db;
        fill-rule: evenodd;
      }
    </style>
  </defs>
  <path id="speedForce" class="cls-1" d="M559.5,2556.02A38.48,38.48,0,1,0,598,2594.5,38.484,38.484,0,0,0,559.5,2556.02Zm0,73.98a35.5,35.5,0,1,1,35.511-35.49A35.493,35.493,0,0,1,559.5,2630Zm-11.531-18.85h6.267v10.38h-6.267v-10.38Zm9.5,0h6.267v10.38h-6.267v-10.38Zm9.339,0h6.268v10.38h-6.268v-10.38Zm-5.4-17.51-14.526-10.68h0l11.318,14.09A3.21,3.21,0,1,0,561.417,2593.64Zm-25.375,13.76,5.219-5.21,2.781,2.78-5.219,5.21Zm-4.581-18.86h7.379v3.94h-7.379v-3.94Zm8.965-17.49,5.218,5.22-2.783,2.78-5.218-5.22Zm17.111-5.57h3.934v7.37h-3.934v-7.37Zm25.149,9.84-5.216,5.22-2.787-2.78,5.224-5.22Zm-1.382,13.22h7.377v3.94H581.3v-3.94Zm-0.045,22.43-5.224-5.22,2.779-2.77,5.224,5.21Z" transform="translate(-521 -2556.03)"/>
</svg>
