<svg xmlns="http://www.w3.org/2000/svg" viewBox="0 0 480 480"><path d="M391.502 210.725c-5.31-1.52-10.846 1.555-12.364 6.865-1.52 5.31 1.555 10.846 6.864 12.364C431.646 243.008 460 261.942 460 279.367c0 12.752-15.51 26.75-42.552 38.402-29.752 12.82-71.958 22.2-118.89 26.424l-40.964-.555-.14-.002c-5.46 0-9.92 4.39-9.995 9.865-.076 5.522 4.34 10.06 9.862 10.134l41.48.562h.135c.297 0 .593-.013.888-.04 49.196-4.385 93.78-14.338 125.538-28.023C470.52 316.677 480 294.524 480 279.367c0-27.943-31.43-52.32-88.498-68.642zM96.88 199.333c-5.523 0-10 4.477-10 10s4.477 10 10 10H138v41.333H96.88c-5.523 0-10 4.477-10 10s4.477 10 10 10H148c5.523 0 10-4.477 10-10V148c0-5.523-4.477-10-10-10H96.88c-5.523 0-10 4.477-10 10s4.477 10 10 10H138v41.333H96.88zM188.88 280.667h61.333c5.522 0 10-4.477 10-10v-61.333c0-5.523-4.477-10-10-10H198.88V158H240c5.523 0 10-4.477 10-10s-4.477-10-10-10h-51.12c-5.524 0-10 4.477-10 10v122.667c0 5.523 4.476 10 10 10zm10-61.334h41.333v41.333H198.88v-41.333z"/><path d="M291.12 280.667h61.335c5.522 0 10-4.477 10-10V148c0-5.523-4.478-10-10-10H291.12c-5.52 0-10 4.477-10 10v122.667c0 5.523 4.48 10 10 10zm10-122.667h41.335v102.667H301.12V158zM182.857 305.537c-3.567-4.216-9.877-4.743-14.093-1.176-4.217 3.568-4.743 9.877-1.177 14.094l22.366 26.44c-47.196-3.6-89.94-12.25-121.37-24.65C37.708 308.06 20 293.162 20 279.367c0-16.018 23.736-33.28 63.493-46.176 5.254-1.703 8.13-7.343 6.427-12.597-1.703-5.253-7.345-8.13-12.597-6.427-23.13 7.502-41.47 16.427-54.515 26.526C7.674 252.412 0 265.422 0 279.367c0 23.104 21.178 43.67 61.242 59.48 32.564 12.85 76.227 21.87 124.226 25.758l-19.944 22.104c-3.7 4.1-3.376 10.423.725 14.122 1.91 1.726 4.307 2.576 6.695 2.576 2.73 0 5.453-1.113 7.427-3.3l36.387-40.326c1.657-1.837 2.575-4.224 2.575-6.7v-.763c0-2.366-.838-4.654-2.365-6.46l-34.113-40.323zM381.414 137.486h40.88c5.52 0 10-4.477 10-10V86.592c0-5.523-4.48-10-10-10h-40.88c-5.522 0-10 4.477-10 10v40.894c0 5.523 4.478 10 10 10zm10-40.894h20.88v20.894h-20.88V96.592z"/></svg>