<svg xmlns="http://www.w3.org/2000/svg" width="54" height="77.03" viewBox="0 0 54 77.03">
  <defs>
    <style>
      .cls-1 {
        fill: #2288db;
        fill-rule: evenodd;
      }
    </style>
  </defs>
  <path id="download" class="cls-1" d="M1369.21,2236a1.563,1.563,0,0,1-1.29-.67l-1.67-2.35a11.287,11.287,0,0,1-2.07-6.54V2222l-6.87-10.02a4.766,4.766,0,0,1-1.27-3.33,4.96,4.96,0,0,1,8.47-3.54l8.73,8.83a1.618,1.618,0,0,1,0,2.27,1.576,1.576,0,0,1-2.25,0l-8.73-8.83a1.774,1.774,0,0,0-2.52,0,1.829,1.829,0,0,0,0,2.55l7.33,10.66a1.6,1.6,0,0,1,.28.91v4.94a8.142,8.142,0,0,0,1.48,4.67l1.67,2.35A1.6,1.6,0,0,1,1369.21,2236Zm17.2-.05a1.6,1.6,0,0,1-1.29-.67l-7.94-11.24a1.594,1.594,0,0,1-.3-0.94v-14.63c0-3.59-2.8-5.86-7.05-9.29-0.29-.24-0.59-0.48-0.89-0.72v5.37a1.59,1.59,0,1,1-3.18,0v-16.05a3.192,3.192,0,0,0-3.17-3.21h-22.24a3.192,3.192,0,0,0-3.17,3.21v35.32a3.192,3.192,0,0,0,3.17,3.21h17.47a1.61,1.61,0,0,1,0,3.22h-17.47a6.4,6.4,0,0,1-6.35-6.43v-35.32a6.393,6.393,0,0,1,6.35-6.42h22.24a6.393,6.393,0,0,1,6.35,6.42v6.53c1,0.84,1.96,1.62,2.87,2.36,4.61,3.72,8.25,6.66,8.25,11.8v14.12l7.65,10.82A1.6,1.6,0,0,1,1386.41,2235.95ZM1345.12,2191a1.605,1.605,0,1,0,1.59,1.6A1.6,1.6,0,0,0,1345.12,2191Zm6.35,0a1.605,1.605,0,1,0,1.59,1.6A1.6,1.6,0,0,0,1351.47,2191Zm6.35,0a1.605,1.605,0,1,0,1.59,1.6A1.594,1.594,0,0,0,1357.82,2191Zm-12.7,6.42a1.605,1.605,0,1,0,1.59,1.6A1.6,1.6,0,0,0,1345.12,2197.42Zm0,6.42a1.605,1.605,0,1,0,1.59,1.6A1.6,1.6,0,0,0,1345.12,2203.84Zm0,6.42a1.605,1.605,0,1,0,1.59,1.61A1.6,1.6,0,0,0,1345.12,2210.26Zm0,6.42a1.605,1.605,0,1,0,1.59,1.61A1.6,1.6,0,0,0,1345.12,2216.68Zm6.35-19.26a1.605,1.605,0,1,0,1.59,1.6A1.6,1.6,0,0,0,1351.47,2197.42Zm0,6.42a1.605,1.605,0,1,0,1.59,1.6A1.6,1.6,0,0,0,1351.47,2203.84Zm0,6.42a1.605,1.605,0,1,0,1.59,1.61A1.6,1.6,0,0,0,1351.47,2210.26Zm0,6.42a1.605,1.605,0,1,0,1.59,1.61A1.6,1.6,0,0,0,1351.47,2216.68Zm6.35-19.26a1.605,1.605,0,1,0,1.59,1.6A1.594,1.594,0,0,0,1357.82,2197.42Zm1.78-20.05a1.6,1.6,0,0,1-.88-0.27,12.77,12.77,0,0,0-14.1,0,1.574,1.574,0,0,1-2.2-.45,1.606,1.606,0,0,1,.44-2.22,15.944,15.944,0,0,1,17.62,0,1.6,1.6,0,0,1,.44,2.22A1.564,1.564,0,0,1,1359.6,2177.37Zm3.52-5.34a1.571,1.571,0,0,1-.88-0.27,19.138,19.138,0,0,0-21.14,0,1.574,1.574,0,0,1-2.2-.45,1.6,1.6,0,0,1,.43-2.22,22.329,22.329,0,0,1,24.67,0,1.606,1.606,0,0,1,.44,2.22A1.577,1.577,0,0,1,1363.12,2172.03Zm-26.43-5.35a1.591,1.591,0,0,1-1.32-.71,1.618,1.618,0,0,1,.44-2.23,28.716,28.716,0,0,1,31.71,0,1.618,1.618,0,0,1,.44,2.23,1.576,1.576,0,0,1-2.2.44,25.561,25.561,0,0,0-28.19,0A1.518,1.518,0,0,1,1336.69,2166.68Z" transform="translate(-1334 -2158.97)"/>
</svg>
