<svg xmlns="http://www.w3.org/2000/svg" width="75" height="75" viewBox="0 0 75 75">
  <defs>
    <style>
      .cls-1 {
        fill: #2288db;
        fill-rule: evenodd;
      }
    </style>
  </defs>
  <path id="func" class="cls-1" d="M439.485,3581.5a8.75,8.75,0,1,0-8.75-8.75A8.763,8.763,0,0,0,439.485,3581.5Zm0-15a6.25,6.25,0,1,1-6.25,6.25A6.255,6.255,0,0,1,439.485,3566.5Zm0,5a1.25,1.25,0,1,1-1.25,1.25A1.25,1.25,0,0,1,439.485,3571.5ZM402,3534v75h75v-75H402Zm46.689,2.5a1.257,1.257,0,0,0-1.028.91l-1,3.74a31.564,31.564,0,0,0-5.91-.84v-3.81h7.939Zm-10.439,3.81a30.313,30.313,0,0,0-5.945.81l-1-3.71a1.257,1.257,0,0,0-1.025-.91h7.965v3.81Zm-8.035-3.81a1.287,1.287,0,0,0-.435.03,1.248,1.248,0,0,0-.884,1.53l1,3.74a33.024,33.024,0,0,0-5.484,2.35l-1.971-3.42a1.25,1.25,0,0,0-2.165,1.25l1.986,3.44a33.737,33.737,0,0,0-4.709,3.63l-2.817-2.82a1.265,1.265,0,0,0-1.768,0,1.251,1.251,0,0,0,0,1.77l2.817,2.82a33.574,33.574,0,0,0-3.674,4.68l-3.394-1.96a1.253,1.253,0,0,0-1.254,2.17l3.375,1.95a31.806,31.806,0,0,0-2.082,4.72,1.149,1.149,0,0,0-.184.33,1.122,1.122,0,0,0-.029.25c-0.308.94-.581,1.9-0.8,2.88a1.25,1.25,0,1,0,2.44.54c0.128-.57.3-1.13,0.458-1.69l16.565,5.39a1.3,1.3,0,0,0,.386.06,1.251,1.251,0,0,0,.386-2.44l-16.541-5.38a30.67,30.67,0,0,1,26.809-19.51v17.44a1.25,1.25,0,0,0,2.5,0v-17.43a30.758,30.758,0,0,1,26.821,19.49l-16.585,5.39a1.251,1.251,0,0,0,.386,2.44,1.3,1.3,0,0,0,.387-0.06l16.6-5.4c0.163,0.58.331,1.15,0.459,1.74a1.248,1.248,0,0,0,1.221.99,1.208,1.208,0,0,0,.264-0.03,1.241,1.241,0,0,0,.96-1.48,30.578,30.578,0,0,0-.856-3.1c-0.007-.03,0-0.06-0.011-0.09a0.752,0.752,0,0,0-.066-0.12,31.27,31.27,0,0,0-2.161-4.96l3.336-1.92a1.252,1.252,0,0,0-1.25-2.17l-3.36,1.94a33.249,33.249,0,0,0-3.691-4.68l2.8-2.8a1.247,1.247,0,1,0-1.768-1.76l-2.808,2.8a34.312,34.312,0,0,0-4.722-3.61l1.989-3.45a1.25,1.25,0,0,0-2.165-1.25l-1.98,3.43a32.821,32.821,0,0,0-5.483-2.33l1.01-3.77a1.252,1.252,0,0,0-.883-1.53,1.165,1.165,0,0,0-.453-0.03H474.5v45.41a4.746,4.746,0,0,1-3.135-3.77l-0.636-4.14H463l-0.924,4.8a4.785,4.785,0,0,1-7.384,3.06l-4.049-2.74-5.465,5.46,2.475,3.38a4.784,4.784,0,0,1-2.955,7.53l-3.947.76v7.73l4.137,0.64a4.677,4.677,0,0,1,3.107,1.88H431.006a4.679,4.679,0,0,1,3.108-1.88l4.137-.64v-7.73l-3.946-.76a4.785,4.785,0,0,1-2.955-7.53l2.476-3.37-5.466-5.47-4.049,2.74a4.785,4.785,0,0,1-7.384-3.06L416,3574h-7.73l-0.636,4.14a4.746,4.746,0,0,1-3.135,3.77V3536.5h25.715Zm-24.325,70a8.736,8.736,0,0,1-1.39-1.75v-9a8.745,8.745,0,1,1,13.609,10.75H405.89Zm15.435,0a11.22,11.22,0,0,0-16.825-14.6v-7.38a7.231,7.231,0,0,0,5.605-6l0.311-2.02h3.52l0.534,2.77a7.285,7.285,0,0,0,11.241,4.66l2.34-1.59,2.489,2.49-1.206,1.65a7.282,7.282,0,0,0,4.5,11.46l1.918,0.37v3.52l-2.018.31a7.209,7.209,0,0,0-5.594,4.36h-6.813Zm23.943-4.36-2.018-.31v-3.51l1.919-.37a7.293,7.293,0,0,0,4.5-11.47l-1.208-1.64,2.489-2.49,2.339,1.58a7.286,7.286,0,0,0,11.241-4.65l0.535-2.78h3.52l0.311,2.02a7.232,7.232,0,0,0,5.605,6v7.38a11.22,11.22,0,0,0-16.826,14.6h-6.811A7.212,7.212,0,0,0,445.268,3602.14Zm15.623,4.36a8.744,8.744,0,1,1,13.609-10.75v9a8.6,8.6,0,0,1-1.39,1.75H460.891Z" transform="translate(-402 -3534)"/>
</svg>
