<svg xmlns="http://www.w3.org/2000/svg" width="52.813" height="53" viewBox="0 0 52.813 53">
  <defs>
    <style>
      .cls-1 {
        fill: #2288db;
        fill-rule: evenodd;
      }
    </style>
  </defs>
  <path id="garnitur" class="cls-1" d="M560.6,2484.92h-0.133a5.542,5.542,0,0,0-4.173-4.19v-2.78a20.9,20.9,0,1,0-41.8,0v2.78a5.542,5.542,0,0,0-4.173,4.19H510.2a1.2,1.2,0,0,0,0,2.4h0.133a5.517,5.517,0,0,0,4.335,4.21,4.783,4.783,0,0,0,9.441-1.1v-8.63a4.8,4.8,0,0,0-4.785-4.8,4.754,4.754,0,0,0-2.422.67,18.5,18.5,0,0,1,37-.02,4.727,4.727,0,0,0-2.388-.65,4.8,4.8,0,0,0-4.785,4.8v8.63a4.784,4.784,0,0,0,9.443,1.1,5.467,5.467,0,0,0,2.041-.87v5.3a7.845,7.845,0,0,1-3.077,6.03,12.125,12.125,0,0,1-7.689,2.61h-7.764c-0.249-1.87-1.106-2.99-2.359-2.99h-4.486a4.2,4.2,0,0,0,0,8.39h4.486c1.253,0,2.11-1.12,2.359-3h7.764c7.255,0,13.158-4.95,13.158-11.04v-8.64A1.2,1.2,0,0,0,560.6,2484.92Zm-43.676-3.12a2.392,2.392,0,1,1,4.784,0v8.63a2.392,2.392,0,1,1-4.784,0,1.2,1.2,0,0,0-1.2-1.2c-0.006,0-.012.01-0.017,0.01s-0.011-.01-0.017-0.01a3.113,3.113,0,0,1-1.163-6v3.11a1.2,1.2,0,1,0,2.393,0v-4.54Zm20.139,25.8h-4.23a1.8,1.8,0,0,1,0-3.6h4.23A5.585,5.585,0,0,1,537.067,2507.6Zm18.035-18.37a1.2,1.2,0,0,0-1.2,1.2,2.392,2.392,0,1,1-4.784,0v-8.63a2.392,2.392,0,1,1,4.784,0v4.54a1.2,1.2,0,1,0,2.393,0v-3.1A3.116,3.116,0,0,1,555.1,2489.23Z" transform="translate(-509 -2457)"/>
</svg>
