<svg xmlns="http://www.w3.org/2000/svg" width="77" height="77" viewBox="0 0 77 77">
  <defs>
    <style>
      .cls-1 {
        fill: #2288db;
        fill-rule: evenodd;
      }
    </style>
  </defs>
  <path id="koleso" class="cls-1" d="M477.8,3208.93a3.946,3.946,0,0,0-3.331-3.52c-1.858-.29-4.491-0.69-5.788-0.89a30.118,30.118,0,0,0-2.914-7.03l3.468-4.72a3.961,3.961,0,0,0-.13-4.86,39.008,39.008,0,0,0-5.055-5.04,3.937,3.937,0,0,0-4.841-.13c-1.515,1.11-3.66,2.69-4.717,3.47a29.913,29.913,0,0,0-7.033-2.92l-0.88-5.78a3.962,3.962,0,0,0-3.532-3.35,39.575,39.575,0,0,0-7.138.01,3.944,3.944,0,0,0-3.509,3.33c-0.287,1.86-.689,4.49-0.888,5.79a29.913,29.913,0,0,0-7.033,2.92l-4.712-3.47a3.94,3.94,0,0,0-4.862.13,39.693,39.693,0,0,0-5.042,5.05,3.968,3.968,0,0,0-.124,4.85c1.108,1.51,2.687,3.66,3.464,4.72a30.118,30.118,0,0,0-2.914,7.03l-5.785.88a3.97,3.97,0,0,0-3.343,3.54,39.144,39.144,0,0,0,.009,7.14,3.952,3.952,0,0,0,3.332,3.51c1.856,0.29,4.49.69,5.787,0.89a30.118,30.118,0,0,0,2.914,7.03l-3.468,4.72a3.961,3.961,0,0,0,.13,4.86,38.758,38.758,0,0,0,5.055,5.04,3.937,3.937,0,0,0,4.841.13c1.515-1.11,3.661-2.69,4.718-3.47a29.923,29.923,0,0,0,7.032,2.92l0.881,5.79a3.962,3.962,0,0,0,3.53,3.34c1.174,0.11,2.352.16,3.528,0.16,1.208,0,2.414-.06,3.609-0.17a3.944,3.944,0,0,0,3.511-3.33c0.289-1.86.691-4.49,0.889-5.79a29.905,29.905,0,0,0,7.032-2.92l4.713,3.47a3.955,3.955,0,0,0,4.863-.13,39.281,39.281,0,0,0,5.039-5.05,3.961,3.961,0,0,0,.126-4.85l-3.465-4.72a30.118,30.118,0,0,0,2.914-7.03l5.784-.88a3.96,3.96,0,0,0,3.345-3.53A39.231,39.231,0,0,0,477.8,3208.93Zm-2.385,6.91a1.559,1.559,0,0,1-1.312,1.38l-6.568,1a1.2,1.2,0,0,0-.988.9,27.717,27.717,0,0,1-3.246,7.84,1.2,1.2,0,0,0,.059,1.34s2.407,3.27,3.933,5.36a1.547,1.547,0,0,1-.042,1.89,37.107,37.107,0,0,1-4.717,4.73,1.554,1.554,0,0,1-1.905.04l-5.351-3.93a1.189,1.189,0,0,0-1.338-.06,27.8,27.8,0,0,1-7.836,3.24,1.213,1.213,0,0,0-.9.99s-0.611,4.02-1.008,6.57a1.545,1.545,0,0,1-1.364,1.31,37.246,37.246,0,0,1-6.679.01,1.563,1.563,0,0,1-1.381-1.32l-1-6.57a1.212,1.212,0,0,0-.9-0.99,27.79,27.79,0,0,1-7.835-3.24,1.177,1.177,0,0,0-1.338.06s-3.272,2.4-5.354,3.93a1.56,1.56,0,0,1-1.89-.04,37.321,37.321,0,0,1-4.729-4.72,1.56,1.56,0,0,1-.047-1.91l3.938-5.35a1.207,1.207,0,0,0,.058-1.34,27.775,27.775,0,0,1-3.246-7.84,1.2,1.2,0,0,0-.987-0.9s-4.015-.61-6.569-1.01a1.544,1.544,0,0,1-1.3-1.36,36.819,36.819,0,0,1-.01-6.69,1.562,1.562,0,0,1,1.312-1.38l6.57-1a1.2,1.2,0,0,0,.986-0.9,27.775,27.775,0,0,1,3.246-7.84,1.207,1.207,0,0,0-.058-1.34s-2.408-3.27-3.933-5.36a1.546,1.546,0,0,1,.042-1.89,37.361,37.361,0,0,1,4.716-4.73,1.54,1.54,0,0,1,1.9-.04l5.352,3.93a1.189,1.189,0,0,0,1.338.06,27.79,27.79,0,0,1,7.835-3.24,1.212,1.212,0,0,0,.9-0.99s0.613-4.02,1.008-6.57a1.546,1.546,0,0,1,1.365-1.31,38.2,38.2,0,0,1,6.679-.01,1.574,1.574,0,0,1,1.381,1.32l1,6.57a1.213,1.213,0,0,0,.9.99,27.8,27.8,0,0,1,7.836,3.24,1.189,1.189,0,0,0,1.338-.06s3.272-2.4,5.353-3.93a1.546,1.546,0,0,1,1.89.04,37.511,37.511,0,0,1,4.728,4.72,1.56,1.56,0,0,1,.049,1.91l-3.938,5.35a1.2,1.2,0,0,0-.059,1.34,27.717,27.717,0,0,1,3.246,7.84,1.2,1.2,0,0,0,.987.9s4.015,0.61,6.569,1.01a1.541,1.541,0,0,1,1.3,1.37A36.708,36.708,0,0,1,475.414,3215.84Zm-35.93-15.37a12.03,12.03,0,1,0,12.026,12.03A12.044,12.044,0,0,0,439.484,3200.47Zm0,21.66a9.625,9.625,0,1,1,9.621-9.63A9.636,9.636,0,0,1,439.484,3222.13Zm-7.226-27.83a1.194,1.194,0,0,0-1.349-1.04c-0.091.01-9.1,1.31-10.65,10.62a1.207,1.207,0,0,0,.989,1.39,1.327,1.327,0,0,0,.2.01,1.2,1.2,0,0,0,1.185-1,10.381,10.381,0,0,1,8.6-8.63A1.208,1.208,0,0,0,432.258,3194.3Z" transform="translate(-401 -3174)"/>
</svg>
