<svg xmlns="http://www.w3.org/2000/svg" width="111" height="56" viewBox="0 0 111 56">
  <defs>
    <style>
      .cls-1 {
        fill: #349bee;
        fill-rule: evenodd;
      }
    </style>
  </defs>
  <path id="mail" class="cls-1" d="M1013.06,448.953c0.04-.008.08-0.019,0.13-0.03,0.03-.009.07-0.016,0.1-0.027s0.08-.027.12-0.041,0.07-.024.1-0.038a0.816,0.816,0,0,0,.11-0.05c0.04-.017.07-0.032,0.11-0.051a1.07,1.07,0,0,1,.1-0.058c0.03-.021.07-0.04,0.1-0.062s0.07-.05.1-0.076,0.06-.041.09-0.064q0.075-.065.15-0.135l0.03-.023a0.051,0.051,0,0,1,.02-0.029,1.267,1.267,0,0,0,.13-0.147,0.521,0.521,0,0,0,.07-0.092,0.544,0.544,0,0,0,.07-0.1,0.626,0.626,0,0,0,.07-0.109c0.02-.03.04-0.06,0.06-0.092s0.03-.075.05-0.112,0.03-.066.05-0.1a13.523,13.523,0,0,1,.08-0.221l0.03-.115c0-.038.02-0.075,0.02-0.113a0.629,0.629,0,0,0,.02-0.136c0.01-.031.01-0.063,0.02-0.095a1.911,1.911,0,0,0,.01-0.239V395.4a2.4,2.4,0,0,0-2.41-2.4H936.765c-0.021,0-.041,0-0.063,0-0.045,0-.091,0-0.137.007s-0.072.007-.108,0.012-0.082.011-.122,0.018-0.076.015-.114,0.024-0.076.018-.114,0.029l-0.111.034c-0.038.013-.075,0.026-0.112,0.041l-0.1.043c-0.038.017-.075,0.036-0.112,0.054s-0.063.033-.094,0.051-0.074.043-.11,0.066-0.059.039-.088,0.059-0.068.049-.1,0.075l-0.089.074-0.085.077c-0.032.031-.062,0.062-0.093,0.095-0.015.015-.031,0.029-0.045,0.046s-0.016.02-.024,0.029c-0.03.035-.058,0.072-0.087,0.108s-0.041.054-.061,0.082-0.048.072-.071,0.109l-0.056.091c-0.02.036-.037,0.073-0.056,0.11s-0.034.067-.049,0.1-0.029.073-.043,0.11-0.028.072-.04,0.108-0.022.074-.032,0.112-0.021.076-.03,0.115-0.013.072-.02,0.109-0.014.083-.019,0.125-0.006.069-.009,0.1-0.006.09-.006,0.135c0,0.013,0,.026,0,0.039V410.17a2.407,2.407,0,0,0,4.814,0v-9.453l21.4,18.857a2.469,2.469,0,0,0-.319.264L939.172,440.82V425.076a2.408,2.408,0,0,0-4.815,0V428H921.92a2.4,2.4,0,1,0,0,4.792h12.437V446.6a2.4,2.4,0,0,0,2.408,2.4h75.825q0.12,0,.24-0.012c0.04,0,.07-0.01.11-0.016S1013.02,448.961,1013.06,448.953Zm-2.87-8.133L989.1,419.838l-0.042-.037,15.85-13.383a2.4,2.4,0,1,0-3.11-3.653l-27.088,22.868-31.6-27.84h67.075V440.82h0Zm-46.53-17.593a2.407,2.407,0,0,0,.42-0.564l9,7.933a2.416,2.416,0,0,0,3.153.033l9.176-7.747a2.373,2.373,0,0,0,.285.345l21.083,20.982h-64.2Zm-57.253-2.943h40.656a2.4,2.4,0,1,0,0-4.791H906.407A2.4,2.4,0,1,0,906.407,420.284Zm4.213-13.2h18.254a2.4,2.4,0,1,0,0-4.792H910.62A2.4,2.4,0,1,0,910.62,407.083Zm13.44,31.036H906.407a2.4,2.4,0,1,0,0,4.791H924.06A2.4,2.4,0,1,0,924.06,438.119Z" transform="translate(-904 -393)"/>
</svg>
