<svg xmlns="http://www.w3.org/2000/svg" width="40" height="76.94" viewBox="0 0 40 76.94">
  <defs>
    <style>
      .cls-1 {
        fill: #2288db;
        fill-rule: evenodd;
      }
    </style>
  </defs>
  <path id="molniya" class="cls-1" d="M1393.58,1463a1.3,1.3,0,0,1-.6-0.15,1.163,1.163,0,0,1-.51-1.41l12.42-33.46-15.02-4.2a1.2,1.2,0,0,1-.81-0.78,1.138,1.138,0,0,1,.23-1.09l30.46-35.46a1.205,1.205,0,0,1,1.47-.27,1.155,1.155,0,0,1,.59,1.35l-8.79,29.85,15.1,4.22a1.151,1.151,0,0,1,.58,1.88l-34.21,39.12A1.22,1.22,0,0,1,1393.58,1463Zm-1.29-40.97,14.48,4.04a1.249,1.249,0,0,1,.74.59,1.121,1.121,0,0,1,.05.93l-10.62,28.62,28.75-32.88-14.47-4.04a1.156,1.156,0,0,1-.71-0.55,1.109,1.109,0,0,1-.1-0.89l7.56-25.7Z" transform="translate(-1389 -1386.06)"/>
</svg>
