<svg xmlns="http://www.w3.org/2000/svg" width="73" height="77" viewBox="0 0 73 77">
  <defs>
    <style>
      .cls-1 {
        fill: #2288db;
        fill-rule: evenodd;
      }
    </style>
  </defs>
  <path id="monitoring" class="cls-1" d="M574.346,2190.87a1.544,1.544,0,1,1-3.087,0v-3.45a1.544,1.544,0,1,1,3.087,0v3.45Zm-6.379,10.59-3.314.89a1.552,1.552,0,0,0,.4,3.05,1.833,1.833,0,0,0,.4-0.05l3.314-.9A1.547,1.547,0,0,0,567.967,2201.46Zm6.379-23.52a1.544,1.544,0,1,0-3.087,0v3.45a1.544,1.544,0,1,0,3.087,0v-3.45Zm-23.809,26.98-3.316-.88a1.552,1.552,0,0,0-.793,3l3.315,0.88a1.363,1.363,0,0,0,.4.05,1.538,1.538,0,0,0,1.491-1.15A1.553,1.553,0,0,0,550.537,2204.92Zm-10-2.67a1.552,1.552,0,0,0-.794,3l0.888,0.24a1.815,1.815,0,0,0,.4.05,1.552,1.552,0,0,0,.4-3.05Zm18.322,1.66-3.313.89a1.554,1.554,0,0,0-1.092,1.9,1.537,1.537,0,0,0,1.49,1.15,1.383,1.383,0,0,0,.4-0.05l3.313-.89A1.552,1.552,0,0,0,558.854,2203.91Zm13.948-8.56a1.544,1.544,0,0,0-1.543,1.55v3.44a1.544,1.544,0,1,0,3.087,0v-3.44A1.544,1.544,0,0,0,572.8,2195.35Zm-7.1-29.24a7.077,7.077,0,1,1,7.076,7.11A7.1,7.1,0,0,1,565.706,2166.11Zm3.087,0a3.989,3.989,0,1,0,3.989-4.01A4.005,4.005,0,0,0,568.793,2166.11Zm3.8,1.55h0.368a1.55,1.55,0,0,0,0-3.1H572.6A1.55,1.55,0,0,0,572.6,2167.66Zm23.392,60.87-0.018-52.85c0-.03,0-0.06,0-0.08a7.088,7.088,0,0,0-5.236-6.52l-6.666-1.79a1.548,1.548,0,0,0-.8,2.99l6.667,1.8a4.04,4.04,0,0,1,2.949,3.64l0,11.41-12.25-3.31a1.552,1.552,0,0,0-.8,3l13.051,3.52,0,14.48-12.256-3.31a1.552,1.552,0,0,0-.8,3l13.057,3.52,0.006,14.98a7.166,7.166,0,0,0-2.147-.99l-15.924-4.28c-0.106-.03-0.212-0.06-0.32-0.08v-8.57a1.544,1.544,0,1,0-3.088,0v8.57c-0.108.02-.215,0.05-0.321,0.08l-18.036,4.85v-7.93a1.544,1.544,0,1,0-3.087,0v7.93l-18.357-4.9v-6.21a1.544,1.544,0,1,0-3.087,0v7.4a1.553,1.553,0,0,0,1.147,1.5l21.41,5.72a1.585,1.585,0,0,0,.864,0l19.945-5.37a4.578,4.578,0,0,1,.981-0.14,0.485,0.485,0,0,0,.17,0,4.6,4.6,0,0,1,.981.14l15.922,4.29a4.009,4.009,0,0,1,2.948,3.61c0,0.04,0,.08.007,0.12a4.035,4.035,0,0,1-.134,1.18,4,4,0,0,1-4.886,2.83l-13.162-3.54v-2.48l13.228,3.66a1.536,1.536,0,0,0,1.9-1.08,1.553,1.553,0,0,0-1.077-1.91l-15.182-4.2a1.513,1.513,0,0,0-1.346.26,1.546,1.546,0,0,0-.609,1.23v5.71a1.544,1.544,0,0,0,1.145,1.5l14.307,3.85a7.212,7.212,0,0,0,1.828.24A7.11,7.11,0,0,0,595.99,2228.53Zm-65.912-21.2a7.11,7.11,0,1,1,7.076-7.11A7.1,7.1,0,0,1,530.078,2207.33Zm0-3.1a4.01,4.01,0,1,0-3.99-4.01A4,4,0,0,0,530.078,2204.23Zm-1.544-15.27v-5.54c0-.04,0-0.07,0-0.11V2165.9a1.565,1.565,0,0,1,.6-1.23,1.529,1.529,0,0,1,1.339-.26l21.045,5.66,10-2.69a1.547,1.547,0,0,1,.8,2.99l-9.253,2.5v14.24l11.861-3.19a1.552,1.552,0,0,1,.8,3l-12.66,3.4v7.78a1.544,1.544,0,1,1-3.087,0v-7.78l-18.357-4.94v3.58A1.544,1.544,0,1,1,528.534,2188.96Zm3.087-6.79,18.357,4.94v-14.24l-18.357-4.95v14.25Zm0.184,18.05a1.544,1.544,0,0,0-1.544-1.55h-0.367a1.55,1.55,0,0,0,0,3.1h0.367A1.544,1.544,0,0,0,531.8,2200.22Z" transform="translate(-523 -2159)"/>
</svg>
