<svg xmlns="http://www.w3.org/2000/svg" width="77" height="77" viewBox="0 0 77 77">
  <defs>
    <style>
      .cls-1 {
        fill: #2288db;
        fill-rule: evenodd;
      }
    </style>
  </defs>
  <path id="Forma_1" data-name="Forma 1" class="cls-1" d="M439.5,660A38.5,38.5,0,1,1,478,621.5,38.544,38.544,0,0,1,439.5,660Zm0-74.266A35.766,35.766,0,1,0,475.266,621.5,35.807,35.807,0,0,0,439.5,585.734Zm0,67.94A32.175,32.175,0,1,1,471.674,621.5,32.211,32.211,0,0,1,439.5,653.674Zm0-61.614a29.44,29.44,0,1,0,29.44,29.44A29.474,29.474,0,0,0,439.5,592.06Zm14.064,36.934s-10.947-11.133-11.488-11.482a4.748,4.748,0,0,0-5.153,7.977c0.534,0.344,15.191,5.75,15.191,5.75Zm-15.756-8.587a2,2,0,0,1,1.268-.876,2.084,2.084,0,0,1,.428-0.046A2.015,2.015,0,1,1,437.808,620.407Zm5.068,4.433a4.787,4.787,0,0,0,1.056-1.637l3.244,3.256Zm-4.743-30.289h2.734v6.984h-2.734v-6.984Zm-4.288.563,1.807,6.746-2.641.708-1.807-6.746Zm-6.635,2.364,3.492,6.047-2.368,1.368-3.492-6.048Zm-5.8,4,4.938,4.938-1.934,1.934-4.938-4.938Zm-4.566,5.364,6.048,3.491-1.367,2.369-6.048-3.492Zm-3.021,6.362,6.745,1.808-0.708,2.641-6.745-1.808Zm45.314,12.142,6.745,1.807-0.708,2.641-6.745-1.807Zm-46.587-5.212h6.984v2.734h-6.984v-2.734Zm7.31,5.212,0.708,2.641-6.745,1.807-0.708-2.641ZM465.174,613.2l0.708,2.641-6.746,1.807-0.707-2.641Zm-43.647,17.1,1.367,2.368-6.048,3.492-1.367-2.368Zm2.886,4.351,1.934,1.934-4.938,4.938-1.934-1.934Zm33.173-33.171,1.933,1.934-4.938,4.938-1.933-1.934Zm-12.433-6.363,2.641,0.708-1.807,6.745-2.642-.707Z" transform="translate(-401 -583)"/>
</svg>
