<svg xmlns="http://www.w3.org/2000/svg" width="79" height="77" viewBox="0 0 79 77">
  <defs>
    <style>
      .cls-1 {
        fill: #2288db;
        fill-rule: evenodd;
      }
    </style>
  </defs>
  <path id="wawes" class="cls-1" d="M1146.77,1623.03h-0.01l-12.97.09a1.239,1.239,0,0,0-1.16.84l-4.25,22.52-5.19-53.5a1.239,1.239,0,0,0-1.18-1.05,1.268,1.268,0,0,0-1.25.97l-8.09,57.19-5.79-42.9a1.233,1.233,0,0,0-2.41.07l-5.77,50.71-6.24-66.9a1.228,1.228,0,0,0-1.15-1.07,1.268,1.268,0,0,0-1.27.93l-5.84,33.33h-13.97a1.24,1.24,0,0,0,0,2.48h14.94a1.238,1.238,0,0,0,1.19-.94l4.51-27.99,6.4,68.12a1.234,1.234,0,0,0,1.19,1.07h0.03a1.231,1.231,0,0,0,1.21-1.01l6.16-52.76,5.7,42.55a1.193,1.193,0,0,0,1.22.94,1.237,1.237,0,0,0,1.18-.98l7.8-55.83,4.95,51.92a1.223,1.223,0,0,0,1.11,1.05,1.207,1.207,0,0,0,1.27-.84l5.59-26.45,12.1-.08A1.24,1.24,0,0,0,1146.77,1623.03Z" transform="translate(-1069 -1590)"/>
</svg>
