<svg xmlns="http://www.w3.org/2000/svg" width="87" height="77" viewBox="0 0 87 77">
  <defs>
    <style>
      .cls-1 {
        fill: #2288db;
        fill-rule: evenodd;
      }
    </style>
  </defs>
  <path id="clouud" class="cls-1" d="M990.914,2182.53c-0.764-13.08-11.522-23.53-24.492-23.53a25.548,25.548,0,0,0-20.222,10.18c-0.109-.06-0.225-0.09-0.335-0.15-0.284-.14-0.571-0.27-0.865-0.38-0.172-.07-0.346-0.13-0.52-0.19a8.755,8.755,0,0,0-.87-0.27c-0.174-.05-0.346-0.1-0.522-0.14-0.319-.07-0.643-0.13-0.971-0.17a3.553,3.553,0,0,0-.457-0.07,11.752,11.752,0,0,0-1.46-.09,13.073,13.073,0,0,0-13.05,13.07c0,0.19.012,0.37,0.023,0.56A20.082,20.082,0,0,0,917,2198.45a18.663,18.663,0,0,0,18.625,18.66H943.1a1.45,1.45,0,1,0,0-2.9h-7.475a15.76,15.76,0,0,1-15.725-15.76,17.292,17.292,0,0,1,9.326-14.9l0.824-.39v-0.91c0-.18.012-0.37,0.022-0.55l0.013-.25-0.018-.29c-0.008-.12-0.017-0.25-0.017-0.37a10.176,10.176,0,0,1,10.15-10.17,9.824,9.824,0,0,1,1.33.1c0.113,0.01.226,0.03,0.339,0.05a11.078,11.078,0,0,1,1.144.26,0.874,0.874,0,0,1,.154.04,8.9,8.9,0,0,1,1.21.46l0.3,0.15a8.717,8.717,0,0,1,1.022.58,10.164,10.164,0,0,1,4.649,8.53,1.45,1.45,0,1,0,2.9,0,13.053,13.053,0,0,0-4.64-9.98,22.941,22.941,0,0,1,17.812-8.9,21.9,21.9,0,0,1,21.529,20.17,27.841,27.841,0,0,0-5.92.18,1.453,1.453,0,0,0,.216,2.89,0.82,0.82,0,0,0,.22-0.02,26.915,26.915,0,0,1,6.792,0,14.889,14.889,0,0,1,11.841,14.51,14.575,14.575,0,0,1-14.541,14.57H980.8a1.45,1.45,0,0,0,0,2.9h5.759A17.477,17.477,0,0,0,1004,2199.64,17.863,17.863,0,0,0,990.914,2182.53Zm-18.389,21.08a1.437,1.437,0,0,0,2.05,0,1.448,1.448,0,0,0,0-2.05l-11.6-11.62a1.476,1.476,0,0,0-.473-0.32,1.42,1.42,0,0,0-1.108,0,1.487,1.487,0,0,0-.473.32l-11.6,11.62a1.448,1.448,0,0,0,0,2.05,1.437,1.437,0,0,0,2.05,0l9.125-9.14v36.57l-9.125-9.14a1.45,1.45,0,0,0-2.05,2.05l11.6,11.62a1.476,1.476,0,0,0,.473.32,1.45,1.45,0,0,0,1.108,0,1.487,1.487,0,0,0,.473-0.32l11.6-11.62a1.45,1.45,0,0,0-2.05-2.05l-9.125,9.14v-36.57Z" transform="translate(-917 -2159)"/>
</svg>
