<svg xmlns="http://www.w3.org/2000/svg" width="77" height="77" viewBox="0 0 77 77">
  <defs>
    <style>
      .cls-1 {
        fill: #2288db;
        fill-rule: evenodd;
      }
    </style>
  </defs>
  <path id="connect" class="cls-1" d="M422.609,3045.63H401v9.57h21.609v-9.57Zm-2.342,7.23H403.342v-4.88h16.925v4.88Zm-15.721-14.52h14.517v6.06H421.4V3036H402.2v8.4h2.342v-6.06Zm2.475,2.44h2.342v2.41h-2.342v-2.41Zm7.225,0h2.342v2.41h-2.342v-2.41Zm-3.612,20.47h2.342v-2.44h2.441v-2.34h-7.225v2.34h2.442v2.44Zm45.758-15.62v9.57H478v-9.57H456.392Zm2.341,7.23v-4.88h16.925v4.88H458.733Zm1.2-14.52h14.517v6.06H476.8V3036H457.6v8.4h2.342v-6.06Zm2.475,2.44h2.342v2.41h-2.342v-2.41Zm7.225,0h2.342v2.41h-2.342v-2.41Zm-6.054,18.03h2.442v2.44h2.342v-2.44h2.441v-2.34h-7.225v2.34Zm2.442,48.2h0a3.654,3.654,0,0,1-3.646,3.65H416.621a3.645,3.645,0,1,1,0-7.29h30.1a5.99,5.99,0,0,0,0-11.98h-30.1a3.645,3.645,0,1,1,0-7.29h30.1a5.99,5.99,0,0,0,0-11.98h-30.1a3.646,3.646,0,0,1-3.646-3.64v-6.02h-2.342v6.02a6,6,0,0,0,5.988,5.99h30.1a3.645,3.645,0,1,1,0,7.29h-30.1a5.985,5.985,0,1,0,0,11.97h30.1a3.645,3.645,0,1,1,0,7.29h-30.1a5.99,5.99,0,0,0,0,11.98h45.758a6,6,0,0,0,5.988-5.99v-44.55h-2.342v44.55Z" transform="translate(-401 -3036)"/>
</svg>
