<svg xmlns="http://www.w3.org/2000/svg" width="78" height="78" viewBox="0 0 78 78">
  <defs>
    <style>
      .cls-1 {
        fill: #2288db;
        fill-rule: evenodd;
      }
    </style>
  </defs>
  <path id="detector" class="cls-1" d="M819.814,1627a9.814,9.814,0,1,0-9.814,9.81A9.822,9.822,0,0,0,819.814,1627ZM810,1632.98a5.98,5.98,0,1,1,5.978-5.98A5.993,5.993,0,0,1,810,1632.98Zm-14.209-7.9a1.92,1.92,0,1,0,1.918,1.92A1.928,1.928,0,0,0,795.791,1625.08Zm-8.2,1.92a1.918,1.918,0,1,0,1.918-1.92A1.922,1.922,0,0,0,787.591,1627Zm-2.446,0a7.073,7.073,0,1,0-7.064,7.08A7.093,7.093,0,0,0,785.145,1627Zm-7.064,3.24a3.24,3.24,0,1,1,3.244-3.24A3.244,3.244,0,0,1,778.081,1630.24Zm52.41-5.16a1.92,1.92,0,1,1-1.918,1.92A1.919,1.919,0,0,1,830.491,1625.08Zm-6.282,3.84a1.92,1.92,0,1,0-1.918-1.92A1.922,1.922,0,0,0,824.209,1628.92Zm17.71-9A7.08,7.08,0,1,0,849,1627,7.094,7.094,0,0,0,841.919,1619.92Zm0,10.32a3.24,3.24,0,1,1,3.245-3.24A3.243,3.243,0,0,1,841.919,1630.24ZM810,1639.29a1.92,1.92,0,1,0,1.918,1.92A1.922,1.922,0,0,0,810,1639.29Zm0,6.28a1.92,1.92,0,1,0,1.918,1.92A1.928,1.928,0,0,0,810,1645.57Zm0,6.28a7.075,7.075,0,1,0,7.081,7.07A7.1,7.1,0,0,0,810,1651.85Zm0,10.31a3.245,3.245,0,1,1,3.245-3.24A3.244,3.244,0,0,1,810,1662.16Zm0-47.45a1.92,1.92,0,1,0-1.918-1.92A1.922,1.922,0,0,0,810,1614.71Zm0-10.12a1.92,1.92,0,1,1-1.918,1.92A1.919,1.919,0,0,1,810,1604.59Zm0-2.44a7.075,7.075,0,1,0-7.081-7.07A7.1,7.1,0,0,0,810,1602.15Zm0-10.31a3.245,3.245,0,1,1-3.245,3.24A3.244,3.244,0,0,1,810,1591.84Zm-11.4,43.85a1.922,1.922,0,1,0,2.717,0A1.922,1.922,0,0,0,798.6,1635.69Zm-3.085,3.87a1.92,1.92,0,1,1-1.918,1.92A1.919,1.919,0,0,1,795.519,1639.56Zm-13.091,5.01a7.073,7.073,0,1,0,10.006,0A7.065,7.065,0,0,0,782.428,1644.57Zm7.289,7.3a3.232,3.232,0,1,1,0-4.57A3.237,3.237,0,0,1,789.717,1651.87Zm34.764-41.27a1.92,1.92,0,1,1-1.918,1.92A1.919,1.919,0,0,1,824.481,1610.6Zm-4.427,4.43a1.915,1.915,0,1,1-1.918,1.92A1.919,1.919,0,0,1,820.054,1615.03Zm17.518-5.6a7.073,7.073,0,1,0-10.006,0A7.065,7.065,0,0,0,837.572,1609.43Zm-7.289-7.3a3.232,3.232,0,1,1,0,4.57A3.237,3.237,0,0,1,830.283,1602.13Zm-5.8,37.43a1.92,1.92,0,1,1-1.918,1.92A1.919,1.919,0,0,1,824.481,1639.56Zm-5.786-3.87a1.922,1.922,0,1,0,2.717,0A1.924,1.924,0,0,0,818.7,1635.69Zm8.871,8.88a7.073,7.073,0,1,0,10.006,0A7.065,7.065,0,0,0,827.566,1644.57Zm7.3,7.3a3.232,3.232,0,1,1,0-4.57A3.237,3.237,0,0,1,834.871,1651.87Zm-34.925-36.84a1.915,1.915,0,1,1-1.918,1.92A1.919,1.919,0,0,1,799.946,1615.03Zm-4.427-4.43a1.92,1.92,0,1,1-1.918,1.92A1.919,1.919,0,0,1,795.519,1610.6Zm-3.085-1.17a7.073,7.073,0,1,0-10.006,0A7.065,7.065,0,0,0,792.434,1609.43Zm-7.3-7.3a3.232,3.232,0,1,1,0,4.57A3.237,3.237,0,0,1,785.129,1602.13Z" transform="translate(-771 -1588)"/>
</svg>
