<svg xmlns="http://www.w3.org/2000/svg" width="63.19" height="76" viewBox="0 0 63.19 76">
  <defs>
    <style>
      .cls-1 {
        fill: #2288db;
        fill-rule: evenodd;
      }
    </style>
  </defs>
  <path id="hand2" class="cls-1" d="M1380.12,1622.67l13.73-1.56c2.13-2.09,12.64-12.34,15.73-14.61,5.05-5.45,13.26-14.58,14.07-16.17a2.454,2.454,0,0,1,2.33-1.33c1.7,0.06,3.45,1.53,4.36,3.65,0.94,2.19,1.72,6.79-3.59,13.02-3.84,4.51-5.1,6.88-5.37,8.19,0,0.07.03,0.12,0.03,0.2,0,0.27-.03.53-0.04,0.8a1.608,1.608,0,0,0,.37.62,5.23,5.23,0,0,1,.46.57,12.137,12.137,0,0,0,2.16,1.36,11.1,11.1,0,0,1,3.86,2.83,20.32,20.32,0,0,0,2.03.6c4.11,1.08,12.64,3.31,11.65,12.69a5.877,5.877,0,0,1-2.42,4.43,6.144,6.144,0,0,1-1.1.6c0.35,1.27,1.51,6.26-1.07,9.29a5.951,5.951,0,0,1-3.5,1.96c-0.18,2.33-.88,6.41-3.52,8.28a5.181,5.181,0,0,1-3.07.96c-0.07,0-.15-0.01-0.22-0.01a9.608,9.608,0,0,1-4.53,5.24,7.314,7.314,0,0,1-3.21.71,11.789,11.789,0,0,1-5.43-1.53l-0.15-.09a11.028,11.028,0,0,1-1.1-.85c-2.17-.16-10.38-1.31-20.54-9.55-4.67.03-10.06,0.32-10.96,0.74a1.467,1.467,0,0,1-1.5.05,1.505,1.505,0,0,1-.77-1.32v-28.27A1.5,1.5,0,0,1,1380.12,1622.67Zm58.83,10.59c0.7-6.32-4.06-8.11-9.44-9.51-1.96-.52-3.15-0.83-3.7-1.78a10.252,10.252,0,0,0-2.85-1.92,23.213,23.213,0,0,1-2.01-1.2,26.69,26.69,0,0,1-5.74,13.03,15.116,15.116,0,0,1,2.74-1.48,4.811,4.811,0,0,1,.15-2.31c0.68-2,2.66-3.21,5.87-3.6a1.211,1.211,0,0,1,.38,0l5.64,0.77a1.49,1.49,0,0,1,1.26,1.68,1.472,1.472,0,0,1-1.66,1.29l-5.44-.74c-1.81.25-2.95,0.79-3.24,1.54-0.35.91,0.41,2.31,0.74,2.77,0.82,0.41,4.18,1.76,7.16,2.9,5.63,2.18,8.03,1.44,8.96.81a2.782,2.782,0,0,0,1.17-2.08A0.97,0.97,0,0,1,1438.95,1633.26Zm-3.95,6.09a1.355,1.355,0,0,1-.02-0.2,21.455,21.455,0,0,1-7.21-1.64c-7.54-2.89-7.89-3.24-8.14-3.5a3.36,3.36,0,0,1-.31-0.38c-2.7,1.14-3.17,2.13-3.25,2.42a2.563,2.563,0,0,0,.83,1.83l0.16,0.21a0.01,0.01,0,0,0,.01.01l0.11,0.14a21.019,21.019,0,0,0,13.54,8.07,8.079,8.079,0,0,0,1.32.12c0.03,0,.05-0.01.07-0.01h0.03c0.01,0,.03.01,0.04,0.01a3.161,3.161,0,0,0,2.51-.88C1436,1644.01,1435.33,1640.48,1435,1639.35Zm-4.67,10.45c-0.05-.01-0.1-0.01-0.16-0.02a24.362,24.362,0,0,1-15.09-8.6c-1.76.63-2.2,1.31-2.3,1.6-0.12.38-.08,1.1,0.89,2.37l0.14,0.18c3.53,4.72,7.76,8.22,11.91,9.86,1.67,0.66,2.37.17,2.59,0.01C1429.55,1654.33,1430.14,1651.86,1430.33,1649.8Zm-9.33,11.3a5.9,5.9,0,0,0,2.63-3,31.568,31.568,0,0,1-10.77-8.41,1.831,1.831,0,0,0-1.34-.09,1.967,1.967,0,0,0-.5,1.28,10.773,10.773,0,0,0,4.48,9.49C1417.72,1661.53,1419.57,1661.77,1421,1661.1Zm-39.23-10.58a84.9,84.9,0,0,1,10.79-.56,1.52,1.52,0,0,1,.93.33c6.69,5.53,12.51,7.75,16.04,8.64a13.263,13.263,0,0,1-1.96-8.28,5.253,5.253,0,0,1,2.06-3.99,3.589,3.589,0,0,1,.66-0.31,5.46,5.46,0,0,1-.78-4.71,5.984,5.984,0,0,1,3.51-3.41,4.659,4.659,0,0,1-.3-3.07,5.058,5.058,0,0,1,.57-1.31,18.123,18.123,0,0,1-9.46,4.42c-1.87.29-2.67-2.6-.79-2.89,9.91-1.51,14.75-10.59,15.35-19.97-0.53-2.28.88-5.55,6.13-11.71,4.44-5.21,3.64-8.65,3.1-9.89a3.478,3.478,0,0,0-1.54-1.76c-1.94,3.07-12.31,14.32-14.45,16.62a1.434,1.434,0,0,1-.23.2c-2.38,1.69-11.42,10.39-15.86,14.75a1.448,1.448,0,0,1-.86.41l-12.91,1.48v25.01Z" transform="translate(-1378.81 -1589)"/>
</svg>
