<svg xmlns="http://www.w3.org/2000/svg" width="48" height="77" viewBox="0 0 48 77">
  <defs>
    <style>
      .cls-1 {
        fill: #2288db;
        fill-rule: evenodd;
      }
    </style>
  </defs>
  <path id="hand" class="cls-1" d="M514.245,1616.8a10.652,10.652,0,0,0,3.032-7.47,10.824,10.824,0,0,0-21.647,0,10.663,10.663,0,0,0,3.034,7.47,0.906,0.906,0,0,1-.648,1.53,0.914,0.914,0,0,1-.648-0.28,12.457,12.457,0,0,1-3.541-8.72,12.629,12.629,0,0,1,25.257,0,12.458,12.458,0,0,1-3.538,8.72A0.9,0.9,0,0,1,514.245,1616.8Zm-21.13,6.76a0.885,0.885,0,0,0,.014-1.26,18.4,18.4,0,0,1-5.318-12.97,18.642,18.642,0,0,1,37.283,0,18.4,18.4,0,0,1-5.317,12.97,0.882,0.882,0,0,0,.014,1.26,0.866,0.866,0,0,0,.63.26,0.906,0.906,0,0,0,.646-0.27,20.154,20.154,0,0,0,5.832-14.22,20.446,20.446,0,0,0-40.892,0,20.158,20.158,0,0,0,5.832,14.22A0.907,0.907,0,0,0,493.115,1623.56Zm37.653,38.49-1.036,3.32a0.913,0.913,0,0,1-.867.63h0l-19.289-.03a0.9,0.9,0,0,1-.6-1.58,0.719,0.719,0,0,0,.141-0.48,3.017,3.017,0,0,0-1.329-1.91c-0.352-.33-7.916-7.47-11.139-13.06-0.89-1.24-7.479-10.67-5.9-14.81a3.059,3.059,0,0,1,2.253-1.91,4.419,4.419,0,0,1,1.509-.27c2.894,0,5.041,2.83,6.608,4.89,0.346,0.46.781,1.03,1.106,1.39a26.97,26.97,0,0,0,.278-5.2,0.951,0.951,0,0,1,0-.1c0-.04.481-4.77,0.509-19.86a0.9,0.9,0,0,1-.5-0.27,5.191,5.191,0,0,1-1.326-3.47,5.261,5.261,0,0,1,10.522,0,5.187,5.187,0,0,1-1.07,3.13c0.019,0.18.038,0.37,0.06,0.57,0.177,1.75.367,4.03,0.567,6.44,0.263,3.18.6,7.29,0.871,9.18a7.069,7.069,0,0,1,3.122-.82,5.018,5.018,0,0,1,4.469,2.83,7.317,7.317,0,0,1,2.5-.49c1.585,0,3.683.65,4.909,3.62a8.939,8.939,0,0,1,5.176,2.74,6.608,6.608,0,0,1,1.44,4.99C533.9,1642.76,535.017,1653.91,530.768,1662.05ZM503,1609.33a3.359,3.359,0,0,0,.18,1.06c0.554-3.25,1.954-3.98,3.1-3.98,1.54,0,2.966,1.43,3.621,2.74A3.451,3.451,0,0,0,503,1609.33Zm28.943,32.31a0.862,0.862,0,0,1,0-.19,4.9,4.9,0,0,0-1.01-3.75,7.511,7.511,0,0,0-4.53-2.19,0.911,0.911,0,0,1-.78-0.6c-0.682-1.97-1.792-2.93-3.389-2.93a5.6,5.6,0,0,0-2.46.65,0.936,0.936,0,0,1-.733.07,0.917,0.917,0,0,1-.548-0.49c-0.781-1.73-1.836-2.57-3.225-2.57a6.142,6.142,0,0,0-3.149,1.14,0.909,0.909,0,0,1-.812.15c-0.839-.25-0.928-0.28-1.842-11.31-0.208-2.49-.448-5.38-0.651-7.22a0.759,0.759,0,0,1-.02-0.17,14.437,14.437,0,0,0-.222-1.52,0.886,0.886,0,0,1-.124-0.3c-0.188-.86-1.388-2.19-2.174-2.19-0.514,0-1.2.91-1.438,3.48,0,15.62-.457,20.79-0.515,21.37,0.02,4.93-.33,6.25-0.944,6.86a1.307,1.307,0,0,1-.938.4c-0.95,0-1.674-.96-2.77-2.4-1.338-1.76-3.168-4.17-5.158-4.17a2.607,2.607,0,0,0-.936.18l-0.108.03a1.245,1.245,0,0,0-1.018.8c-0.945,2.48,3,9.39,5.707,13.16,0.018,0.03.033,0.05,0.049,0.08,3.077,5.35,10.726,12.57,10.8,12.64a4.569,4.569,0,0,1,1.931,3.28c0,0.08,0,.16-0.01.24l17.271,0.02,0.861-2.75a0.785,0.785,0,0,1,.062-0.15C533.31,1653.33,531.954,1641.76,531.939,1641.64Z" transform="translate(-486 -1589)"/>
</svg>
