<svg xmlns="http://www.w3.org/2000/svg" width="70" height="77" viewBox="0 0 70 77">
  <defs>
    <style>
      .cls-1 {
        fill: #2288db;
        fill-rule: evenodd;
      }
    </style>
  </defs>
  <path id="ministr" class="cls-1" d="M543.793,1460.59h-2.414v-56.54a1.207,1.207,0,0,0-1.207-1.21h-7.241v-4.81a1.207,1.207,0,0,0-2.414,0v4.81H528.1v-10.82a1.207,1.207,0,1,0-2.413,0v10.82h-2.414a1.205,1.205,0,1,0,0,2.41h15.689v3.61H523.276a1.205,1.205,0,1,0,0,2.41h15.689v2.4H523.276a1.205,1.205,0,1,0,0,2.41h15.689v2.4H523.276a1.205,1.205,0,1,0,0,2.41h15.689v2.41H523.276a1.2,1.2,0,1,0,0,2.4h15.689v2.41H523.276a1.205,1.205,0,1,0,0,2.41h15.689v2.4H523.276a1.205,1.205,0,1,0,0,2.41h15.689v2.4H523.276a1.205,1.205,0,1,0,0,2.41h15.689v2.41H523.276a1.2,1.2,0,1,0,0,2.4h15.689v2.41H523.276a1.205,1.205,0,1,0,0,2.41h15.689v2.4H523.276a1.205,1.205,0,1,0,0,2.41h15.689v6.01h-19.31V1387.2a1.205,1.205,0,0,0-1.207-1.2h-38.62a1.205,1.205,0,0,0-1.207,1.2v73.39h-2.414a1.205,1.205,0,1,0,0,2.41h67.586A1.205,1.205,0,1,0,543.793,1460.59Zm-62.758-67.37h36.206v56.55H481.035v-56.55Zm36.206-4.81v2.4H481.035v-2.4h36.206Zm-36.206,63.76h36.206v8.42h-2.413v-4.81a1.207,1.207,0,0,0-2.414,0v4.81H510v-4.81a1.207,1.207,0,0,0-2.414,0v4.81h-2.414v-4.81a1.207,1.207,0,0,0-2.413,0v4.81h-2.414v-4.81a1.207,1.207,0,0,0-2.414,0v4.81h-2.414v-4.81a1.207,1.207,0,0,0-2.414,0v4.81H490.69v-4.81a1.207,1.207,0,0,0-2.414,0v4.81h-2.414v-4.81a1.207,1.207,0,0,0-2.414,0v4.81h-2.413v-8.42Zm13.275-56.55a1.208,1.208,0,0,0-1.207,1.21v49.33a1.207,1.207,0,0,0,2.414,0v-49.33A1.207,1.207,0,0,0,494.31,1395.62Zm4.828,0a1.207,1.207,0,0,0-1.207,1.21v49.33a1.207,1.207,0,0,0,2.414,0v-49.33A1.208,1.208,0,0,0,499.138,1395.62Zm-9.655,0a1.207,1.207,0,0,0-1.207,1.21v49.33a1.207,1.207,0,0,0,2.414,0v-49.33A1.208,1.208,0,0,0,489.483,1395.62Zm-4.828,0a1.208,1.208,0,0,0-1.207,1.21v49.33a1.207,1.207,0,0,0,2.414,0v-49.33A1.207,1.207,0,0,0,484.655,1395.62Zm28.966,0a1.207,1.207,0,0,0-1.207,1.21v49.33a1.207,1.207,0,0,0,2.414,0v-49.33A1.208,1.208,0,0,0,513.621,1395.62Zm-4.828,0a1.208,1.208,0,0,0-1.207,1.21v49.33a1.207,1.207,0,0,0,2.414,0v-49.33A1.207,1.207,0,0,0,508.793,1395.62Zm-4.827,0a1.207,1.207,0,0,0-1.207,1.21v49.33a1.207,1.207,0,0,0,2.413,0v-49.33A1.207,1.207,0,0,0,503.966,1395.62Z" transform="translate(-475 -1386)"/>
</svg>
