<svg xmlns="http://www.w3.org/2000/svg" width="63" height="77" viewBox="0 0 63 77">
  <defs>
    <style>
      .cls-1 {
        fill: #2288db;
        fill-rule: evenodd;
      }
    </style>
  </defs>
  <path id="opwt" class="cls-1" d="M1100.67,1403.64a3.645,3.645,0,1,0,3.66,3.65A3.66,3.66,0,0,0,1100.67,1403.64Zm0,6.08a2.435,2.435,0,1,1,2.45-2.43A2.446,2.446,0,0,1,1100.67,1409.72Zm22.92,2.12a7.8,7.8,0,0,0-1.63-2.66,0.648,0.648,0,0,0-.71-0.15l-1.53.65a6.386,6.386,0,0,0-1.7-.93l-0.16-1.53a0.636,0.636,0,0,0-.52-0.55,8.715,8.715,0,0,0-3.22,0,0.615,0.615,0,0,0-.51.55l-0.16,1.53a6.293,6.293,0,0,0-1.71.93l-0.81-.35a0.617,0.617,0,0,0,.33-0.45,10.66,10.66,0,0,0,0-3.19,0.617,0.617,0,0,0-.56-0.52l-2.24-.17a8.563,8.563,0,0,0-.71-1.71l1.46-1.7a0.6,0.6,0,0,0,.02-0.76,10.483,10.483,0,0,0-2.26-2.25,0.6,0.6,0,0,0-.76.03l-1.72,1.45a8.563,8.563,0,0,0-1.71-.71l-0.18-2.23a0.606,0.606,0,0,0-.52-0.55,10.727,10.727,0,0,0-3.2,0,0.606,0.606,0,0,0-.52.55l-0.18,2.23a8.563,8.563,0,0,0-1.71.71l-1.71-1.45a0.617,0.617,0,0,0-.77-0.03,10.713,10.713,0,0,0-2.26,2.25,0.6,0.6,0,0,0,.02.76l1.47,1.7a8.233,8.233,0,0,0-.71,1.71l-2.25.17a0.627,0.627,0,0,0-.56.52,10.66,10.66,0,0,0,0,3.19,0.617,0.617,0,0,0,.56.52l2.25,0.17a8.014,8.014,0,0,0,.71,1.71l-1.47,1.7a0.6,0.6,0,0,0-.02.76,10.713,10.713,0,0,0,2.26,2.25,0.63,0.63,0,0,0,.77-0.02l1.71-1.46a8.014,8.014,0,0,0,1.71.71l0.18,2.23a0.617,0.617,0,0,0,.52.56,10.727,10.727,0,0,0,3.2,0,0.617,0.617,0,0,0,.52-0.56l0.18-2.23a8.014,8.014,0,0,0,1.71-.71l1.72,1.46a0.622,0.622,0,0,0,.34.13,8.437,8.437,0,0,0-2.79-.11,0.594,0.594,0,0,0-.5.49l-0.26,1.54a6.366,6.366,0,0,0-1.76.85l-1.46-.74a0.593,0.593,0,0,0-.68.11,7.8,7.8,0,0,0-1.75,2.54,0.593,0.593,0,0,0,.18.69l1.27,0.98a5.777,5.777,0,0,0-.12,1.85l-1.38.84a0.6,0.6,0,0,0-.26.66,7.862,7.862,0,0,0,1.43,2.73,0.607,0.607,0,0,0,.66.18l1.54-.57a6.414,6.414,0,0,0,1.64,1.04l0.07,1.56a0.576,0.576,0,0,0,.44.54,8.634,8.634,0,0,0,3.16.18,0.583,0.583,0,0,0,.5-0.49l0.26-1.54a6.307,6.307,0,0,0,1.75-.85l1.47,0.74a0.593,0.593,0,0,0,.68-0.1,7.727,7.727,0,0,0,1.74-2.54,0.572,0.572,0,0,0-.18-0.69l-1.26-.99a5.485,5.485,0,0,0,.11-1.85l1.38-.83a0.58,0.58,0,0,0,.26-0.67,7.731,7.731,0,0,0-1.23-2.47l0.28-.12a6.293,6.293,0,0,0,1.71.93l0.16,1.52a0.616,0.616,0,0,0,.51.56,8.691,8.691,0,0,0,1.61.15,8.879,8.879,0,0,0,1.62-.15,0.638,0.638,0,0,0,.51-0.56l0.16-1.52a6.386,6.386,0,0,0,1.7-.93l1.53,0.65a0.648,0.648,0,0,0,.71-0.15,7.8,7.8,0,0,0,1.63-2.66,0.645,0.645,0,0,0-.24-0.73l-1.33-.9a5.5,5.5,0,0,0,0-1.81l1.33-.89A0.645,0.645,0,0,0,1123.59,1411.84Zm-15.6-.28-0.24-.28a8.563,8.563,0,0,0,.71-1.71l0.76-.06A7.656,7.656,0,0,0,1107.99,1411.56Zm-3.03,1.74a0.617,0.617,0,0,0-.73-0.06,7.124,7.124,0,0,1-2.17.9,0.607,0.607,0,0,0-.47.55l-0.17,2.16a9.736,9.736,0,0,1-1.87,0l-0.18-2.16a0.607,0.607,0,0,0-.47-0.55,7.124,7.124,0,0,1-2.17-.9,0.618,0.618,0,0,0-.73.06l-1.66,1.41a9.081,9.081,0,0,1-1.32-1.31l1.42-1.66a0.617,0.617,0,0,0,.05-0.72,7.069,7.069,0,0,1-.9-2.16,0.607,0.607,0,0,0-.55-0.47l-2.18-.18a9.529,9.529,0,0,1,0-1.85l2.18-.17a0.617,0.617,0,0,0,.55-0.48,7.173,7.173,0,0,1,.9-2.16,0.617,0.617,0,0,0-.05-0.72l-1.42-1.65a9.686,9.686,0,0,1,1.32-1.32l1.66,1.42a0.633,0.633,0,0,0,.73.05,7.124,7.124,0,0,1,2.17-.9,0.605,0.605,0,0,0,.47-0.54l0.18-2.17a9.736,9.736,0,0,1,1.87,0l0.17,2.17a0.605,0.605,0,0,0,.47.54,7.124,7.124,0,0,1,2.17.9,0.632,0.632,0,0,0,.73-0.05l1.66-1.42a9.15,9.15,0,0,1,1.32,1.32l-1.42,1.65a0.617,0.617,0,0,0-.05.72,7.069,7.069,0,0,1,.9,2.16,0.617,0.617,0,0,0,.55.48l2.18,0.17a9.529,9.529,0,0,1,0,1.85l-2.18.18a0.607,0.607,0,0,0-.55.47,6.967,6.967,0,0,1-.9,2.16,0.617,0.617,0,0,0,.05.72l1.42,1.66a8.608,8.608,0,0,1-1.32,1.31Zm2.01,2.69a10.483,10.483,0,0,0,2.26-2.25,0.533,0.533,0,0,0,.11-0.34l0.1,0.06a6.1,6.1,0,0,0,0,1.81l-1.32.9a0.618,0.618,0,0,0-.24.73,7.6,7.6,0,0,0,1.36,2.35l-0.18.06a6.309,6.309,0,0,0-1.64-1.03l-0.06-1.56a0.6,0.6,0,0,0-.45-0.55l-0.31-.06A0.567,0.567,0,0,0,1106.97,1415.99Zm3.14,6.36a0.588,0.588,0,0,0-.27.6,4.706,4.706,0,0,1-.13,2.11,0.586,0.586,0,0,0,.2.63l1.2,0.93a6.674,6.674,0,0,1-1.01,1.46l-1.4-.71a0.581,0.581,0,0,0-.63.07,4.964,4.964,0,0,1-1.99.95,0.614,0.614,0,0,0-.45.48l-0.24,1.47a7.64,7.64,0,0,1-1.85-.1l-0.06-1.49a0.624,0.624,0,0,0-.39-0.53,5.022,5.022,0,0,1-1.86-1.17,0.611,0.611,0,0,0-.62-0.14l-1.48.55a6.847,6.847,0,0,1-.82-1.56l1.32-.79a0.6,0.6,0,0,0,.27-0.6,4.568,4.568,0,0,1,.13-2.11,0.576,0.576,0,0,0-.2-0.63l-1.2-.94a6.632,6.632,0,0,1,1-1.46l1.4,0.71a0.617,0.617,0,0,0,.64-0.06,4.982,4.982,0,0,1,1.99-.96,0.577,0.577,0,0,0,.44-0.47l0.25-1.48a7.172,7.172,0,0,1,1.85.11l0.06,1.48a0.582,0.582,0,0,0,.39.53,5.154,5.154,0,0,1,1.86,1.17,0.572,0.572,0,0,0,.62.14l1.48-.54a6.544,6.544,0,0,1,.81,1.55Zm10.85-9.69a0.614,0.614,0,0,0-.26.66,4.346,4.346,0,0,1,0,2.09,0.629,0.629,0,0,0,.26.67l1.25,0.85a6.747,6.747,0,0,1-.89,1.44l-1.45-.62a0.658,0.658,0,0,0-.67.11,5.361,5.361,0,0,1-1.95,1.06,0.621,0.621,0,0,0-.45.54l-0.15,1.44a7.083,7.083,0,0,1-1.84,0l-0.15-1.44a0.608,0.608,0,0,0-.45-0.54,5.361,5.361,0,0,1-1.95-1.06,0.654,0.654,0,0,0-.67-0.11l-1.45.62a6.509,6.509,0,0,1-.89-1.44l1.25-.85a0.629,0.629,0,0,0,.26-0.67,4.61,4.61,0,0,1,0-2.09,0.614,0.614,0,0,0-.26-0.66l-1.25-.85a6.509,6.509,0,0,1,.89-1.44l1.45,0.62a0.651,0.651,0,0,0,.67-0.11,5.216,5.216,0,0,1,1.95-1.06,0.608,0.608,0,0,0,.45-0.54l0.15-1.44a7.083,7.083,0,0,1,1.84,0l0.15,1.44a0.621,0.621,0,0,0,.45.54,5.216,5.216,0,0,1,1.95,1.06,0.651,0.651,0,0,0,.67.11l1.45-.62a6.509,6.509,0,0,1,.89,1.44Zm20.04,13.21a1.271,1.271,0,0,0-.34-0.73,84.593,84.593,0,0,1-6.76-8.02,24.059,24.059,0,0,0,.28-11.37,2.948,2.948,0,0,0,1.99-.8,2.257,2.257,0,0,0,.46-2.29c-3.27-11.58-10.48-12.37-12.37-12.37h-0.03a37.818,37.818,0,0,0-17.62-4.29c-9.33.02-28.61,5.96-28.61,24.16,0,10.32,3.3,15.65,6.22,20.35,2.18,3.53,4.07,6.58,3.88,11.15-0.35,8.45-6.97,19.4-7.04,19.51a1.234,1.234,0,0,0-.02,1.22,1.218,1.218,0,0,0,1.06.61h36.05a1.2,1.2,0,0,0,.96-0.47,1.211,1.211,0,0,0,.22-1.04c-0.45-1.69-1.23-6.55.47-8.77a3.214,3.214,0,0,1,2.7-1.2c5.3-.08,8.53-0.96,10.16-2.77,1.57-1.74,1.36-3.9,1.18-5.8a16.2,16.2,0,0,1-.11-2.03,3.347,3.347,0,0,0,1.33-1.98,2.616,2.616,0,0,0-.44-1.88,3.093,3.093,0,0,0,2.16-1.78c0.54-1.34-.03-2.84-0.89-4.33C1141.11,1429.17,1141.03,1426.23,1141,1425.87Zm-7.27,3.2a1.2,1.2,0,0,0-.72,1.83c0.45,0.68,1.82,2.76,1.52,3.49a1.127,1.127,0,0,1-.79.41,2.464,2.464,0,0,0-1.88,1.29,2.01,2.01,0,0,0,.49,1.93,2.09,2.09,0,0,1,.32.52,1.784,1.784,0,0,1-.77.75,1.184,1.184,0,0,0-.52.82,13.59,13.59,0,0,0,.05,3.06c0.16,1.62.29,3.02-.57,3.97-1.12,1.25-3.95,1.91-8.4,1.98a5.633,5.633,0,0,0-4.59,2.15c-2.01,2.62-1.6,7.02-1.2,9.32h-32.49c1.97-3.6,6.05-11.82,6.34-18.83,0.22-5.31-1.95-8.81-4.25-12.51-2.74-4.43-5.85-9.45-5.85-19.09,0-16.39,17.65-21.73,26.2-21.75h0.09a35.1,35.1,0,0,1,16.58,4.12,1.19,1.19,0,0,0,.76.17c0.06-.01,7.09-0.58,10.25,10.61h0a4.154,4.154,0,0,1-1.46-.07,1.209,1.209,0,0,0-1.41,1.56,21.763,21.763,0,0,1-.01,12.17,1.209,1.209,0,0,0,.15,1.03,78.752,78.752,0,0,0,6.91,8.35C1138.22,1426.95,1137.25,1428.2,1133.73,1429.07Z" transform="translate(-1078 -1386)"/>
</svg>
