<svg xmlns="http://www.w3.org/2000/svg" width="26" height="28" viewBox="0 0 26 28">
  <defs>
    <style>
      .cls-1 {
        fill: #fff;
        fill-rule: evenodd;
      }
    </style>
  </defs>
  <path id="pdf" class="cls-1" d="M495.841,3210.9a0.441,0.441,0,0,0,.174-0.35v-20.32a0.456,0.456,0,0,0-.467-0.44H482.027a2.684,2.684,0,0,0-5.062,0h-1.5a0.456,0.456,0,0,0-.467.44v25.32a0.458,0.458,0,0,0,.467.45h14.842a0.486,0.486,0,0,0,.368-0.17Zm-5.06,3.57V3211h3.634ZM479.5,3188.89a1.73,1.73,0,0,1,1.525.9H477.97A1.726,1.726,0,0,1,479.5,3188.89Zm-3.561,1.79h5.274v3.13a0.78,0.78,0,0,1-1.558,0v-1.79a0.467,0.467,0,0,0-.934,0v1.79a1.715,1.715,0,0,0,3.427,0v-3.13H495.08v19.42h-4.767a0.458,0.458,0,0,0-.467.45v4.56H475.935v-24.43Zm15.874,17.9a0.446,0.446,0,1,0,0-.89h-12.6a0.446,0.446,0,1,0,0,.89h12.6Zm-12.6-2.68h12.6a0.446,0.446,0,1,0,0-.89h-12.6A0.446,0.446,0,1,0,479.206,3205.9Zm0-2.68h12.6a0.446,0.446,0,1,0,0-.89h-12.6A0.446,0.446,0,1,0,479.206,3203.22Zm0-2.68h12.6a0.446,0.446,0,1,0,0-.89h-12.6A0.446,0.446,0,1,0,479.206,3200.54Zm0-2.68h12.6a0.446,0.446,0,1,0,0-.89h-12.6A0.446,0.446,0,1,0,479.206,3197.86Zm18.834-8.07h-0.623a0.446,0.446,0,1,0,0,.89h0.156v24.43h-4.99a0.446,0.446,0,1,0,0,.89h5.457a0.458,0.458,0,0,0,.467-0.45v-25.32A0.456,0.456,0,0,0,498.04,3189.79Zm2.493,0H499.91a0.446,0.446,0,1,0,0,.89h0.155v24.43H499.91a0.446,0.446,0,1,0,0,.89h0.623a0.458,0.458,0,0,0,.467-0.45v-25.32A0.456,0.456,0,0,0,500.533,3189.79Z" transform="translate(-475 -3188)"/>
</svg>
