<svg xmlns="http://www.w3.org/2000/svg" width="77" height="77" viewBox="0 0 77 77">
  <defs>
    <style>
      .cls-1 {
        fill: #2288db;
        fill-rule: evenodd;
      }
    </style>
  </defs>
  <path class="cls-1" d="M439.5,1427.99a5.955,5.955,0,1,0,5.954,5.95A5.959,5.959,0,0,0,439.5,1427.99Zm0,9.53a3.575,3.575,0,1,1,3.572-3.58A3.582,3.582,0,0,1,439.5,1437.52Zm27.7-11h4.763v2.38H467.2v-2.38Zm-6.35,0h4.762v2.38h-4.762v-2.38Zm-53.98,0h11.114v2.38H406.874v-2.38Zm60.33,4.76h4.763v2.39H467.2v-2.39Zm-46.041,36.52h36.515v2.38H421.163v-2.38Zm0-6.35h36.515v2.38H421.163v-2.38Zm6.35-6.35h30.165v2.38H427.513v-2.38Zm-6.35,0h3.175v2.38h-3.175v-2.38Zm54.059-35.05h-9.129V1401H412.907v19.05h-9.129a2.784,2.784,0,0,0-2.778,2.78v37.71h11.907V1478h53.186v-17.46H478v-37.71A2.784,2.784,0,0,0,475.222,1420.05Zm-59.933-16.67h48.422v16.67H415.289v-16.67Zm48.422,72.24H415.289v-26.08h48.422v26.08Zm11.908-17.47h-9.526v-8.61h5.953V1447H406.8v2.54h6.112v8.61h-9.526v-35.32a0.4,0.4,0,0,1,.4-0.4h71.444a0.4,0.4,0,0,1,.4.4v35.32Z" transform="translate(-401 -1401)"/>
</svg>
