<svg xmlns="http://www.w3.org/2000/svg" width="44" height="78" viewBox="0 0 44 78">
  <defs>
    <style>
      .cls-1 {
        fill: #2288db;
        fill-rule: evenodd;
      }
    </style>
  </defs>
  <path id="usb" class="cls-1" d="M830.533,1406.62H818.8a1.45,1.45,0,0,0-1.467,1.44v11.57a1.45,1.45,0,0,0,1.467,1.44h4.528c-0.116,2.55-.935,4.39-2.457,5.47-3.606,2.54-10.107.61-10.871,0.37v-21.74h7.333a1.48,1.48,0,0,0,1.247-.68,1.431,1.431,0,0,0,.065-1.41l-8.8-17.35a1.538,1.538,0,0,0-2.624,0l-8.8,17.35a1.431,1.431,0,0,0,.065,1.41,1.481,1.481,0,0,0,1.247.68h7.334v29.26c-2.167.54-6.917,1.37-9.809-.67-1.645-1.16-2.481-3.21-2.481-6.08a1.388,1.388,0,0,0-.331-0.88,5.84,5.84,0,1,0-2.128-.17,1.408,1.408,0,0,0-.473,1.05c0,3.86,1.248,6.7,3.713,8.44a11.639,11.639,0,0,0,6.745,1.83,22.321,22.321,0,0,0,4.764-.55v11.29a7.334,7.334,0,1,0,2.933,0v-12.57a1.432,1.432,0,0,0,.073-1.11c-0.016-.04-0.053-0.07-0.073-0.12v-4.97a23.274,23.274,0,0,0,5.827.8,11.636,11.636,0,0,0,6.744-1.83c2.328-1.64,3.557-4.27,3.688-7.82h4.274a1.45,1.45,0,0,0,1.467-1.44v-11.57A1.45,1.45,0,0,0,830.533,1406.62Zm-39.6,14.45a2.934,2.934,0,1,1,2.933,2.9A2.917,2.917,0,0,1,790.933,1421.07Zm16.133-18.79h-4.96l6.427-12.67,6.427,12.67h-7.894Zm5.867,53.49a4.4,4.4,0,1,1-4.627-4.31h0.454A4.359,4.359,0,0,1,812.933,1455.77Zm16.133-37.59h-8.8v-8.67h8.8v8.67Z" transform="translate(-788 -1385)"/>
</svg>
