<svg xmlns="http://www.w3.org/2000/svg" width="60.812" height="53" viewBox="0 0 60.812 53">
  <defs>
    <style>
      .cls-1 {
        fill: #2288db;
        fill-rule: evenodd;
      }
    </style>
  </defs>
  <path id="znak" class="cls-1" d="M782.6,2495.19a2.855,2.855,0,1,1-2.811,2.86A2.836,2.836,0,0,1,782.6,2495.19Zm-0.378-4.56a1.558,1.558,0,0,0,1.548-1.57v-14.95a1.548,1.548,0,1,0-3.1,0v14.95A1.558,1.558,0,0,0,782.222,2490.63Zm6.019-28.95-0.07-.11c-1.433-2.25-2.914-4.57-5.571-4.57-2.769,0-4.218,2.36-5.619,4.63a0.89,0.89,0,0,1-.057.1l-24.509,42.21a1.094,1.094,0,0,0-.215.65,5.36,5.36,0,0,0,5.408,5.41h49.984a5.36,5.36,0,0,0,5.408-5.41,1.319,1.319,0,0,0-.214-0.72Zm19.351,45.17H757.608a2.242,2.242,0,0,1-2.283-1.88l24.281-41.74c1.2-1.96,1.991-3.12,2.994-3.12,0.975,0,1.9,1.47,2.974,3.15l24.3,41.7A2.25,2.25,0,0,1,807.592,2506.85Z" transform="translate(-752.188 -2457)"/>
</svg>
